<svg width="54" height="54" viewBox="0 0 54 54" fill="none" xmlns="http://www.w3.org/2000/svg">
<path d="M22.8285 7.30832C23.1647 6.47742 23.7413 5.76585 24.4845 5.26481C25.2278 4.76377 26.1037 4.49609 27 4.49609C27.8963 4.49609 28.7722 4.76377 29.5155 5.26481C30.2587 5.76585 30.8353 6.47742 31.1715 7.30832C34.4987 8.22335 37.4335 10.2053 39.5252 12.9498C41.6169 15.6943 42.7499 19.0496 42.75 22.5003V33.0686L46.872 39.2516C47.0981 39.5904 47.2279 39.9843 47.2477 40.3912C47.2675 40.798 47.1764 41.2026 46.9842 41.5618C46.792 41.921 46.506 42.2212 46.1565 42.4305C45.8071 42.6399 45.4073 42.7504 45 42.7503H34.7963C34.5253 44.6248 33.5881 46.3389 32.1563 47.5787C30.7245 48.8184 28.894 49.5008 27 49.5008C25.106 49.5008 23.2755 48.8184 21.8437 47.5787C20.4119 46.3389 19.4747 44.6248 19.2038 42.7503H9C8.59265 42.7504 8.19293 42.6399 7.84348 42.4305C7.49403 42.2212 7.20796 41.921 7.01578 41.5618C6.82361 41.2026 6.73255 40.798 6.75231 40.3912C6.77208 39.9843 6.90192 39.5904 7.128 39.2516L11.25 33.0686V22.5003C11.25 15.2463 16.155 9.13532 22.8285 7.30832ZM23.8185 42.7503C24.0509 43.4088 24.4818 43.979 25.0518 44.3823C25.6218 44.7856 26.3029 45.0021 27.0011 45.0021C27.6994 45.0021 28.3805 44.7856 28.9505 44.3823C29.5205 43.979 29.9514 43.4088 30.1838 42.7503H23.8163H23.8185ZM27 11.2503C24.0163 11.2503 21.1548 12.4356 19.045 14.5454C16.9353 16.6552 15.75 19.5166 15.75 22.5003V33.7503C15.7501 34.1948 15.6186 34.6293 15.372 34.9991L13.2053 38.2503H40.7925L38.6258 34.9991C38.38 34.629 38.2492 34.1945 38.25 33.7503V22.5003C38.25 19.5166 37.0647 16.6552 34.955 14.5454C32.8452 12.4356 29.9837 11.2503 27 11.2503Z" fill="white"/>
</svg>
