<svg width="42" height="71" viewBox="0 0 42 71" fill="none" xmlns="http://www.w3.org/2000/svg">
<path d="M3.32245 71H38.676C40.5033 71 41.9904 69.5068 41.9904 67.6719V3.32812C41.9904 1.49322 40.5033 0 38.676 0H3.32245C1.49511 0 0.00805664 1.49322 0.00805664 3.32812V67.6719C0.00805664 69.5068 1.49511 71 3.32245 71ZM2.21765 3.32812C2.21765 3.0339 2.33405 2.75173 2.54124 2.54368C2.74843 2.33563 3.02944 2.21875 3.32245 2.21875H38.676C38.969 2.21875 39.25 2.33563 39.4572 2.54368C39.6644 2.75173 39.7808 3.0339 39.7808 3.32812V67.6719C39.7808 67.9661 39.6644 68.2483 39.4572 68.4563C39.25 68.6644 38.969 68.7812 38.676 68.7812H3.32245C3.02944 68.7812 2.74843 68.6644 2.54124 68.4563C2.33405 68.2483 2.21765 67.9661 2.21765 67.6719V3.32812Z" fill="white"/>
<path d="M5.53265 59.9062H36.467C36.76 59.9062 37.041 59.7894 37.2482 59.5813C37.4554 59.3733 37.5718 59.0911 37.5718 58.7969V12.2031C37.5718 11.9089 37.4554 11.6267 37.2482 11.4187C37.041 11.2106 36.76 11.0938 36.467 11.0938H5.53265C5.23964 11.0938 4.95863 11.2106 4.75144 11.4187C4.54425 11.6267 4.42786 11.9089 4.42786 12.2031V58.7969C4.42786 59.0911 4.54425 59.3733 4.75144 59.5813C4.95863 59.7894 5.23964 59.9062 5.53265 59.9062ZM6.63745 13.3125H35.3622V57.6875H6.63745V13.3125Z" fill="white"/>
<path d="M22.1046 66.5625C23.3249 66.5625 24.3142 65.5691 24.3142 64.3438C24.3142 63.1184 23.3249 62.125 22.1046 62.125C20.8843 62.125 19.895 63.1184 19.895 64.3438C19.895 65.5691 20.8843 66.5625 22.1046 66.5625Z" fill="white"/>
<path d="M16.5806 8.875H25.419C25.712 8.875 25.993 8.75812 26.2002 8.55007C26.4074 8.34202 26.5238 8.05985 26.5238 7.76562C26.5238 7.4714 26.4074 7.18923 26.2002 6.98118C25.993 6.77313 25.712 6.65625 25.419 6.65625H16.5806C16.2876 6.65625 16.0066 6.77313 15.7994 6.98118C15.5922 7.18923 15.4758 7.4714 15.4758 7.76562C15.4758 8.05985 15.5922 8.34202 15.7994 8.55007C16.0066 8.75812 16.2876 8.875 16.5806 8.875V8.875Z" fill="white"/>
</svg>
