<svg width="59" height="59" viewBox="0 0 59 59" fill="none" xmlns="http://www.w3.org/2000/svg">
<path d="M42.5734 0.189292C45.5677 0.326958 47.6376 0.767 49.5502 1.50942C51.3636 2.18745 53.0054 3.25678 54.3587 4.64133C55.7432 5.99461 56.8125 7.63638 57.4906 9.44983C58.233 11.3649 58.673 13.4323 58.8107 16.4266C58.9803 20.1387 59 21.4465 59 29.5C59 37.5535 58.9803 38.8613 58.8107 42.5734C58.673 45.5677 58.233 47.6376 57.4906 49.5526C56.8122 51.3652 55.7429 53.0061 54.3587 54.3587C53.0054 55.7433 51.3637 56.8126 49.5502 57.4906C47.6351 58.233 45.5677 58.673 42.5734 58.8107C38.8613 58.9803 37.556 59 29.5 59C21.444 59 20.1362 58.9803 16.4266 58.8107C13.4323 58.673 11.3624 58.233 9.44737 57.4906C7.63476 56.8123 5.99385 55.743 4.64133 54.3587C3.25678 53.0054 2.18745 51.3636 1.50942 49.5502C0.767 47.6351 0.326958 45.5677 0.189292 42.5734C0.0196667 38.8663 0 37.5584 0 29.5C0 21.444 0.0196667 20.1337 0.189292 16.4266C0.326958 13.4323 0.767 11.3624 1.50942 9.44983C2.18745 7.63638 3.25678 5.99461 4.64133 4.64133C5.9939 3.25708 7.6348 2.18777 9.44737 1.50942C11.3649 0.767 13.4323 0.326958 16.4266 0.189292C20.1337 0.0196667 21.4416 0 29.5 0C37.556 0 38.8663 0.0196667 42.5734 0.189292V0.189292ZM29.5 6.55637C21.535 6.55637 20.3157 6.57358 16.724 6.73829C14.4452 6.84154 13.0783 7.13162 11.8221 7.62083C10.7527 8.03875 10.0718 8.48125 9.27529 9.27529C8.47879 10.0718 8.03629 10.7527 7.62083 11.8221C7.13408 13.0759 6.84154 14.4452 6.73829 16.724C6.57358 20.3157 6.55637 21.535 6.55637 29.5C6.55637 37.465 6.57358 38.6843 6.73829 42.276C6.84154 44.5548 7.13162 45.9217 7.62083 47.1754C8.03875 48.2472 8.48125 48.9282 9.27529 49.7247C10.0718 50.5212 10.7527 50.9637 11.8221 51.3792C13.0759 51.8659 14.4452 52.1585 16.724 52.2617C20.3181 52.4264 21.5375 52.4436 29.5 52.4436C37.465 52.4436 38.6819 52.4264 42.276 52.2617C44.5548 52.1585 45.9217 51.8684 47.1779 51.3792C48.2472 50.9612 48.9282 50.5187 49.7247 49.7247C50.5212 48.9282 50.9637 48.2472 51.3792 47.1779C51.8659 45.9241 52.1585 44.5548 52.2617 42.276C52.4264 38.6819 52.4436 37.4625 52.4436 29.5C52.4436 21.5375 52.4264 20.3181 52.2617 16.724C52.1585 14.4452 51.8684 13.0783 51.3792 11.8246C51.0315 10.8587 50.4653 9.98618 49.7247 9.27529C49.0139 8.53462 48.1414 7.96838 47.1754 7.62083C45.9217 7.13408 44.5524 6.84154 42.2735 6.73829C38.6819 6.57358 37.4625 6.55637 29.4975 6.55637H29.5ZM29.5 44.7957C25.4433 44.7957 21.5528 43.1842 18.6843 40.3157C15.8158 37.4472 14.2042 33.5567 14.2042 29.5C14.2042 25.4433 15.8158 21.5528 18.6843 18.6843C21.5528 15.8158 25.4433 14.2042 29.5 14.2042C33.5567 14.2042 37.4472 15.8158 40.3157 18.6843C43.1842 21.5528 44.7957 25.4433 44.7957 29.5C44.7957 33.5567 43.1842 37.4472 40.3157 40.3157C37.4472 43.1842 33.5567 44.7957 29.5 44.7957V44.7957ZM29.5 38.2418C31.8185 38.2418 34.042 37.3208 35.6814 35.6814C37.3208 34.042 38.2418 31.8185 38.2418 29.5C38.2418 27.1815 37.3208 24.958 35.6814 23.3186C34.042 21.6792 31.8185 20.7582 29.5 20.7582C27.1815 20.7582 24.958 21.6792 23.3186 23.3186C21.6792 24.958 20.7582 27.1815 20.7582 29.5C20.7582 31.8185 21.6792 34.042 23.3186 35.6814C24.958 37.3208 27.1815 38.2418 29.5 38.2418V38.2418ZM44.7957 17.4812C43.9263 17.4812 43.0925 17.1358 42.4777 16.521C41.8629 15.9063 41.5176 15.0725 41.5176 14.203C41.5176 13.3336 41.8629 12.4998 42.4777 11.885C43.0925 11.2702 43.9263 10.9248 44.7957 10.9248C45.6652 10.9248 46.499 11.2702 47.1138 11.885C47.7286 12.4998 48.0739 13.3336 48.0739 14.203C48.0739 15.0725 47.7286 15.9063 47.1138 16.521C46.499 17.1358 45.6652 17.4812 44.7957 17.4812Z" fill="white"/>
</svg>
