<svg width="84" height="84" viewBox="0 0 84 84" fill="none" xmlns="http://www.w3.org/2000/svg">
<path d="M3.50003 80.5005L14 70.0005L3.50003 80.5005ZM70 14.0005L80.5 3.50049L70 14.0005ZM31.5 38.5005L42 28.0005L31.5 38.5005ZM45.5 52.5005L56 42.0005L45.5 52.5005ZM35 17.5005L66.5 49.0005L70 45.5005C77 38.5005 84.1855 28.0005 70 14.0005C55.8145 0.000488043 45.5 7.00049 38.5 14.0005L35 17.5005ZM14 38.5005L17.5 35.0005L49 66.5005L45.5 70.0005C38.5 77.0005 28 84.305 14 70.0005C3.02792e-05 55.696 7.00003 45.5005 14 38.5005Z" stroke="white" stroke-width="7"/>
</svg>
