<svg width="71" height="71" viewBox="0 0 71 71" fill="none" xmlns="http://www.w3.org/2000/svg">
<path d="M55.025 14.2002C57.3788 14.2002 59.6362 15.1352 61.3005 16.7996C62.9649 18.464 63.9 20.7214 63.9 23.0752V51.4752C63.9 53.829 62.9649 56.0864 61.3005 57.7508C59.6362 59.4152 57.3788 60.3502 55.025 60.3502H15.975C13.6212 60.3502 11.3638 59.4152 9.6994 57.7508C8.03502 56.0864 7.09998 53.829 7.09998 51.4752V23.0752C7.09998 20.7214 8.03502 18.464 9.6994 16.7996C11.3638 15.1352 13.6212 14.2002 15.975 14.2002H55.025ZM60.35 28.2617L36.4017 42.3552C36.1753 42.4882 35.9222 42.5692 35.6607 42.5926C35.3992 42.6159 35.1357 42.5809 34.8894 42.4901L34.5983 42.3552L10.65 28.2688V51.4752C10.65 52.8875 11.211 54.2419 12.2096 55.2405C13.2083 56.2392 14.5627 56.8002 15.975 56.8002H55.025C56.4373 56.8002 57.7917 56.2392 58.7903 55.2405C59.7889 54.2419 60.35 52.8875 60.35 51.4752V28.2617ZM55.025 17.7502H15.975C14.5627 17.7502 13.2083 18.3112 12.2096 19.3099C11.211 20.3085 10.65 21.6629 10.65 23.0752V24.1473L35.5 38.7662L60.35 24.1402V23.0752C60.35 21.6629 59.7889 20.3085 58.7903 19.3099C57.7917 18.3112 56.4373 17.7502 55.025 17.7502V17.7502Z" fill="white"/>
</svg>
