<svg width="72" height="72" viewBox="0 0 72 72" fill="none" xmlns="http://www.w3.org/2000/svg">
<path d="M39.0062 21.027C48.5102 21.027 53.9042 27.318 54.6872 34.917H54.9272C56.38 34.915 57.819 35.1993 59.1619 35.7535C60.5048 36.3077 61.7254 37.1211 62.754 38.1471C63.7825 39.1732 64.5988 40.3918 65.1564 41.7334C65.7139 43.0749 66.0016 44.5132 66.0032 45.966C66.0012 47.4185 65.7132 48.8565 65.1555 50.1977C64.5978 51.5389 63.7814 52.7572 62.7529 53.7829C61.7244 54.8086 60.5039 55.6217 59.1612 56.1758C57.8185 56.7298 56.3798 57.014 54.9272 57.012H23.0822C21.6296 57.014 20.1909 56.7298 18.8482 56.1758C17.5055 55.6217 16.285 54.8086 15.2565 53.7829C14.228 52.7572 13.4116 51.5389 12.8539 50.1977C12.2962 48.8565 12.0082 47.4185 12.0062 45.966C12.0078 44.5132 12.2955 43.0749 12.853 41.7334C13.4106 40.3918 14.2269 39.1732 15.2554 38.1471C16.284 37.1211 17.5046 36.3077 18.8475 35.7535C20.1904 35.1993 21.6294 34.915 23.0822 34.917H23.3222C24.1112 27.267 29.5022 21.027 39.0062 21.027V21.027ZM39.0062 25.518C32.7902 25.518 27.3752 30.42 27.3752 37.188C27.3752 38.259 26.4182 39.102 25.3232 39.102H23.2532C19.4672 39.102 16.4012 42.102 16.4012 45.81C16.4012 49.515 19.4672 52.518 23.2502 52.518H54.7592C58.5422 52.518 61.6082 49.518 61.6082 45.81C61.6082 42.105 58.5422 39.102 54.7592 39.102H52.6892C51.5912 39.102 50.6342 38.262 50.6342 37.188C50.6342 30.333 45.2192 25.518 39.0062 25.518V25.518ZM30.0002 12C34.8512 12 39.1502 14.445 41.7002 18.186C40.8062 18.0791 39.9066 18.026 39.0062 18.027C37.8212 18.027 36.6812 18.114 35.5892 18.282C34.2615 17.3409 32.7175 16.7506 31.1006 16.5657C29.4837 16.3809 27.8463 16.6075 26.3404 17.2246C24.8346 17.8416 23.509 18.8292 22.4868 20.0955C21.4645 21.3618 20.7788 22.8658 20.4932 24.468L20.2742 25.71C20.1521 26.405 19.7889 27.0348 19.2485 27.4886C18.708 27.9423 18.0249 28.1911 17.3192 28.191H15.8492C14.7921 28.1899 13.7584 28.5022 12.8788 29.0884C11.9992 29.6746 11.3131 30.5085 10.9073 31.4845C10.5014 32.4606 10.3941 33.5351 10.5987 34.5721C10.8034 35.6092 11.311 36.5623 12.0572 37.311C11.1122 38.511 10.3622 39.876 9.8522 41.352C8.2573 40.1288 7.07498 38.4467 6.46408 36.5318C5.85318 34.617 5.84296 32.561 6.4348 30.6401C7.02664 28.7193 8.19218 27.0255 9.77483 25.7865C11.3575 24.5475 13.2814 23.8225 15.2882 23.709L16.0592 23.691C16.6393 20.415 18.3544 17.4479 20.9036 15.3102C23.4528 13.1724 26.6733 12.0005 30.0002 12V12Z" fill="#EEEEEE"/>
</svg>
