<svg width="58" height="58" viewBox="0 0 58 58" fill="none" xmlns="http://www.w3.org/2000/svg">
<path d="M28.9879 0C13.0041 0 0 13.0065 0 28.9903C0 44.9887 13.0041 58 28.9879 58C44.9863 58 58 44.9863 58 28.9903C58 13.0065 44.9863 0 28.9879 0ZM14.2777 39.643C17.5968 38.6263 21.0482 38.1067 24.5195 38.1012C30.3533 38.1012 36.1123 39.5802 41.1752 42.3787C41.4773 42.543 41.7503 43.0843 41.876 43.761C41.9968 44.4377 41.9485 45.1313 41.7503 45.4913C41.6569 45.6626 41.5305 45.8137 41.3783 45.9357C41.2261 46.0577 41.0512 46.1484 40.8637 46.2023C40.6763 46.2563 40.4799 46.2725 40.2862 46.25C40.0924 46.2275 39.905 46.1668 39.7348 46.0713C36.0161 44.0313 31.9255 42.7589 27.7056 42.3296C23.4858 41.9004 19.2228 42.323 15.1694 43.5725C14.9833 43.6327 14.7871 43.6552 14.5923 43.6388C14.3974 43.6224 14.2077 43.5674 14.0343 43.477C13.8609 43.3866 13.7072 43.2626 13.5822 43.1122C13.4572 42.9618 13.3634 42.788 13.3062 42.601C13.0476 41.7552 13.5817 39.8702 14.2777 39.643ZM13.0138 28.9613C16.7633 27.9427 20.6316 27.4266 24.5171 27.4268C31.5109 27.4268 38.454 29.1184 44.5996 32.3229C45.0322 32.5404 45.3488 32.9126 45.4938 33.3669C45.5671 33.5964 45.5937 33.8381 45.5721 34.078C45.5505 34.3179 45.4812 34.5511 45.3681 34.7638C44.8195 35.8368 44.1767 36.5593 43.7731 36.5593C43.4787 36.558 43.1888 36.4868 42.9273 36.3515C37.2462 33.3855 30.9282 31.8477 24.5195 31.871C20.9548 31.8638 17.4055 32.3394 13.9683 33.2848C13.739 33.3474 13.4996 33.3643 13.2638 33.3345C13.028 33.3047 12.8004 33.2287 12.5939 33.1109C12.3874 32.993 12.2062 32.8357 12.0606 32.6479C11.9149 32.46 11.8077 32.2453 11.745 32.016C11.4743 30.9962 12.0954 29.2127 13.0138 28.9613V28.9613ZM12.6875 21.9868C12.4155 22.0566 12.1323 22.0719 11.8544 22.0317C11.5765 21.9915 11.3093 21.8966 11.0682 21.7526C10.8271 21.6086 10.6169 21.4183 10.4498 21.1926C10.2826 20.9669 10.1619 20.7104 10.0944 20.4378C9.79717 19.2343 10.5488 17.8374 11.6411 17.5619C15.8546 16.5241 20.1777 15.9975 24.5171 15.9935C32.8546 15.9935 40.8441 17.8688 48.2584 21.5688C48.7678 21.8221 49.1558 22.2673 49.3371 22.8066C49.5184 23.3458 49.4781 23.935 49.2251 24.4446C48.8795 25.1406 48.1303 25.8898 47.3038 25.8898C46.9797 25.8885 46.6598 25.8168 46.3662 25.6795C39.5864 22.2784 32.1021 20.5184 24.5171 20.5417C20.5658 20.5417 16.5856 21.0274 12.6875 21.9868V21.9868Z" fill="white"/>
</svg>
