<svg width="41" height="34" viewBox="0 0 41 34" fill="none" xmlns="http://www.w3.org/2000/svg">
<path d="M41 4.02484C39.4913 4.70747 37.8702 5.16882 36.1687 5.37637C37.9056 4.3141 39.2392 2.63197 39.8672 0.627717C38.2161 1.62753 36.4096 2.33196 34.5258 2.71057C32.9914 1.04249 30.8054 0 28.3859 0C23.7404 0 19.974 3.84311 19.974 8.5831C19.974 9.25592 20.0485 9.91093 20.1919 10.5393C13.201 10.1812 7.00299 6.76418 2.85414 1.57117C2.13024 2.83886 1.71543 4.31345 1.71543 5.88626C1.71543 8.86419 3.20056 11.4913 5.45748 13.0306C4.1217 12.9879 2.8153 12.6197 1.64737 11.9569C1.64689 11.9928 1.64689 12.0288 1.64689 12.0649C1.64689 16.2236 4.54636 19.6928 8.39427 20.4813C7.1556 20.825 5.85632 20.8753 4.59568 20.6284C5.66601 24.0384 8.77256 26.5199 12.4533 26.5893C9.57446 28.8913 5.9474 30.2636 2.0066 30.2636C1.32754 30.2636 0.658082 30.2229 0 30.1437C3.72251 32.579 8.14395 34 12.8942 34C28.3664 34 36.827 20.9209 36.827 9.57853C36.827 9.20624 36.819 8.83609 36.8026 8.46805C38.4494 7.25328 39.8708 5.74868 41 4.02484Z" fill="#FBFBFB"/>
</svg>
