<svg width="23" height="24" viewBox="0 0 23 24" fill="none" xmlns="http://www.w3.org/2000/svg">
<path d="M11.5129 0C12.4145 0.00982689 13.3124 0.114238 14.1932 0.310775C14.3806 0.352601 14.5502 0.451917 14.6784 0.594847C14.8065 0.737776 14.8868 0.917178 14.9081 1.10798L15.1169 2.98369C15.1464 3.24814 15.2375 3.50197 15.383 3.72477C15.5285 3.94756 15.7242 4.1331 15.9545 4.26645C16.1848 4.39981 16.4431 4.47725 16.7087 4.49255C16.9744 4.50784 17.2399 4.46058 17.484 4.35454L19.2049 3.5991C19.3796 3.52214 19.5739 3.50137 19.761 3.53966C19.948 3.57795 20.1186 3.67341 20.249 3.81283C21.492 5.1408 22.4177 6.7334 22.9563 8.47078C23.0128 8.65336 23.0111 8.84898 22.9514 9.03055C22.8918 9.21213 22.7772 9.37065 22.6234 9.48418L21.0978 10.6094C20.8833 10.767 20.7088 10.9728 20.5886 11.2103C20.4683 11.4478 20.4057 11.7103 20.4057 11.9765C20.4057 12.2427 20.4683 12.5052 20.5886 12.7427C20.7088 12.9802 20.8833 13.1861 21.0978 13.3437L22.6247 14.4676C22.7789 14.5811 22.8939 14.7397 22.9538 14.9216C23.0137 15.1034 23.0154 15.2994 22.9588 15.4823C22.4199 17.2196 21.4943 18.8121 20.2515 20.1402C20.1214 20.2793 19.9513 20.3747 19.7648 20.4132C19.5782 20.4517 19.3844 20.4314 19.2098 20.3552L17.4815 19.5973C17.2378 19.4904 16.9723 19.4424 16.7066 19.4572C16.4409 19.472 16.1824 19.5491 15.9521 19.6824C15.7217 19.8156 15.526 20.0012 15.3807 20.2242C15.2353 20.4471 15.1446 20.7011 15.1157 20.9657L14.9081 22.8401C14.8872 23.0289 14.8084 23.2065 14.6826 23.3488C14.5569 23.4911 14.3902 23.591 14.2055 23.6349C12.4262 24.0582 10.5725 24.0582 8.79331 23.6349C8.60856 23.591 8.4419 23.4911 8.31613 23.3488C8.19035 23.2065 8.11161 23.0289 8.09068 22.8401L7.88432 20.9681C7.85423 20.7042 7.76264 20.4511 7.61693 20.2291C7.47121 20.007 7.27543 19.8223 7.04532 19.6896C6.81521 19.557 6.5572 19.4803 6.29202 19.4655C6.02684 19.4507 5.7619 19.4984 5.51849 19.6046L3.79142 20.3613C3.61672 20.4378 3.42258 20.4583 3.23578 20.4198C3.04898 20.3813 2.87874 20.2857 2.74854 20.1463C1.50508 18.8168 0.57942 17.2225 0.0412326 15.4835C-0.0153994 15.3006 -0.0136551 15.1046 0.046223 14.9228C0.106101 14.741 0.221138 14.5823 0.375347 14.4689L1.9022 13.3437C2.11697 13.1863 2.29164 12.9804 2.41203 12.7429C2.53243 12.5054 2.59516 12.2428 2.59516 11.9765C2.59516 11.7102 2.53243 11.4477 2.41203 11.2101C2.29164 10.9726 2.11697 10.7668 1.9022 10.6094L0.375347 9.48663C0.221356 9.37303 0.106563 9.21429 0.0469086 9.03247C-0.0127458 8.85064 -0.0143004 8.65476 0.0424608 8.47201C0.581127 6.73464 1.50678 5.14206 2.74977 3.81406C2.8802 3.67464 3.05073 3.57918 3.23778 3.54089C3.42483 3.5026 3.61915 3.52337 3.79388 3.60033L5.51358 4.35577C5.75805 4.46174 6.02396 4.5089 6.28996 4.49345C6.55596 4.47801 6.81463 4.40039 7.04519 4.26683C7.27575 4.13327 7.47177 3.9475 7.6175 3.72444C7.76324 3.50138 7.85462 3.24725 7.88432 2.98246L8.09314 1.10798C8.11422 0.916793 8.19461 0.736996 8.32304 0.593807C8.45147 0.450618 8.6215 0.351218 8.80927 0.309547C9.69001 0.114238 10.5904 0.0110552 11.5129 0ZM11.4982 8.29144C10.5208 8.29144 9.5835 8.67969 8.89241 9.37077C8.20132 10.0619 7.81307 10.9992 7.81307 11.9765C7.81307 12.9539 8.20132 13.8912 8.89241 14.5823C9.5835 15.2734 10.5208 15.6616 11.4982 15.6616C12.4755 15.6616 13.4128 15.2734 14.1039 14.5823C14.795 13.8912 15.1832 12.9539 15.1832 11.9765C15.1832 10.9992 14.795 10.0619 14.1039 9.37077C13.4128 8.67969 12.4755 8.29144 11.4982 8.29144Z" fill="white"/>
</svg>
