<svg width="50" height="50" viewBox="0 0 50 50" fill="none" xmlns="http://www.w3.org/2000/svg">
<path d="M22.25 38.75C22.25 39.4793 22.5397 40.1788 23.0555 40.6945C23.5712 41.2103 24.2707 41.5 25 41.5C25.7293 41.5 26.4288 41.2103 26.9445 40.6945C27.4603 40.1788 27.75 39.4793 27.75 38.75C27.75 38.0207 27.4603 37.3212 26.9445 36.8055C26.4288 36.2897 25.7293 36 25 36C24.2707 36 23.5712 36.2897 23.0555 36.8055C22.5397 37.3212 22.25 38.0207 22.25 38.75ZM22.25 0.25V11.25H27.75V5.97C37.0725 7.3175 44.25 15.2925 44.25 25C44.25 30.1054 42.2219 35.0017 38.6118 38.6118C35.0017 42.2219 30.1054 44.25 25 44.25C19.8946 44.25 14.9983 42.2219 11.3882 38.6118C7.77812 35.0017 5.75 30.1054 5.75 25C5.75 20.38 7.3725 16.145 10.095 12.845L25 27.75L28.8775 23.8725L10.1775 5.1725V5.2275C4.155 9.7375 0.25 16.8875 0.25 25C0.25 31.5641 2.85758 37.8594 7.49911 42.5009C12.1406 47.1424 18.4359 49.75 25 49.75C31.5641 49.75 37.8594 47.1424 42.5009 42.5009C47.1424 37.8594 49.75 31.5641 49.75 25C49.75 18.4359 47.1424 12.1406 42.5009 7.49911C37.8594 2.85758 31.5641 0.25 25 0.25H22.25ZM41.5 25C41.5 24.2707 41.2103 23.5712 40.6945 23.0555C40.1788 22.5397 39.4793 22.25 38.75 22.25C38.0207 22.25 37.3212 22.5397 36.8055 23.0555C36.2897 23.5712 36 24.2707 36 25C36 25.7293 36.2897 26.4288 36.8055 26.9445C37.3212 27.4603 38.0207 27.75 38.75 27.75C39.4793 27.75 40.1788 27.4603 40.6945 26.9445C41.2103 26.4288 41.5 25.7293 41.5 25ZM8.5 25C8.5 25.7293 8.78973 26.4288 9.30546 26.9445C9.82118 27.4603 10.5207 27.75 11.25 27.75C11.9793 27.75 12.6788 27.4603 13.1945 26.9445C13.7103 26.4288 14 25.7293 14 25C14 24.2707 13.7103 23.5712 13.1945 23.0555C12.6788 22.5397 11.9793 22.25 11.25 22.25C10.5207 22.25 9.82118 22.5397 9.30546 23.0555C8.78973 23.5712 8.5 24.2707 8.5 25Z" fill="#EEEEEE"/>
</svg>
