<svg width="67" height="67" viewBox="0 0 67 67" fill="none" xmlns="http://www.w3.org/2000/svg">
<path d="M27.4363 28.1064C25.5268 28.1064 24.0193 29.7814 24.0193 31.8249C24.0193 33.8684 25.5603 35.5434 27.4363 35.5434C29.3458 35.5434 30.8533 33.8684 30.8533 31.8249C30.8868 29.7814 29.3458 28.1064 27.4363 28.1064ZM39.6638 28.1064C37.7543 28.1064 36.2468 29.7814 36.2468 31.8249C36.2468 33.8684 37.7878 35.5434 39.6638 35.5434C41.5733 35.5434 43.0808 33.8684 43.0808 31.8249C43.0808 29.7814 41.5733 28.1064 39.6638 28.1064Z" fill="#F2F2F2"/>
<path d="M55.945 0H11.055C7.2695 0 4.1875 3.082 4.1875 6.901V52.193C4.1875 56.012 7.2695 59.094 11.055 59.094H49.044L47.2685 52.8965L51.5565 56.883L55.61 60.635L62.8125 67V6.901C62.8125 3.082 59.7305 0 55.945 0ZM43.014 43.751C43.014 43.751 41.808 42.3105 40.803 41.0375C45.1915 39.798 46.8665 37.051 46.8665 37.051C45.493 37.9555 44.1865 38.592 43.014 39.0275C41.339 39.731 39.731 40.2 38.1565 40.468C35.2874 40.9962 32.3449 40.9849 29.48 40.4345C27.798 40.1054 26.1497 39.6232 24.5555 38.994C23.7152 38.6709 22.8981 38.2903 22.11 37.855C22.0095 37.788 21.909 37.7545 21.8085 37.6875C21.7415 37.654 21.708 37.6205 21.6745 37.587C21.0715 37.252 20.7365 37.0175 20.7365 37.0175C20.7365 37.0175 22.3445 39.6975 26.599 40.9705C25.594 42.2435 24.3545 43.751 24.3545 43.751C16.951 43.5165 14.137 38.659 14.137 38.659C14.137 27.872 18.961 19.1285 18.961 19.1285C23.785 15.5105 28.3745 15.611 28.3745 15.611L28.7095 16.013C22.6795 17.755 19.899 20.4015 19.899 20.4015C19.899 20.4015 20.636 19.9995 21.8755 19.43C25.46 17.8555 28.3075 17.42 29.48 17.3195C29.681 17.286 29.8485 17.2525 30.0495 17.2525C35.8587 16.4662 41.7668 17.5703 46.9 20.4015C46.9 20.4015 44.2535 17.889 38.5585 16.147L39.0275 15.611C39.0275 15.611 43.617 15.5105 48.441 19.1285C48.441 19.1285 53.265 27.872 53.265 38.659C53.265 38.659 50.4175 43.5165 43.014 43.751V43.751Z" fill="#F2F2F2"/>
</svg>
