<svg width="30" height="30" viewBox="0 0 30 30" fill="none" xmlns="http://www.w3.org/2000/svg">
<path d="M15 0C23.2845 0 30 6.7155 30 15C30 23.2845 23.2845 30 15 30C6.7155 30 0 23.2845 0 15C0 6.7155 6.7155 0 15 0ZM15 7.5C14.7281 7.50001 14.4655 7.59846 14.2606 7.77715C14.0557 7.95584 13.9225 8.20267 13.8855 8.472L13.875 8.625V13.875H8.625C8.33996 13.8751 8.06559 13.9834 7.85731 14.178C7.64904 14.3726 7.52239 14.6389 7.50296 14.9233C7.48353 15.2077 7.57277 15.4888 7.75265 15.7099C7.93252 15.9311 8.18962 16.0756 8.472 16.1145L8.625 16.125H13.875V21.375C13.8751 21.66 13.9834 21.9344 14.178 22.1427C14.3726 22.351 14.6389 22.4776 14.9233 22.497C15.2077 22.5165 15.4888 22.4272 15.7099 22.2474C15.9311 22.0675 16.0756 21.8104 16.1145 21.528L16.125 21.375V16.125H21.375C21.66 16.1249 21.9344 16.0166 22.1427 15.822C22.351 15.6274 22.4776 15.3611 22.497 15.0767C22.5165 14.7923 22.4272 14.5112 22.2474 14.2901C22.0675 14.0689 21.8104 13.9244 21.528 13.8855L21.375 13.875H16.125V8.625C16.125 8.32663 16.0065 8.04048 15.7955 7.8295C15.5845 7.61853 15.2984 7.5 15 7.5Z" fill="white"/>
</svg>
