<svg width="23" height="23" viewBox="0 0 23 23" fill="none" xmlns="http://www.w3.org/2000/svg">
<path d="M15.3947 7.96924C15.3947 7.87041 15.3139 7.78955 15.2151 7.78955L13.7326 7.79629L11.5 10.4579L9.26964 7.79854L7.78497 7.7918C7.68615 7.7918 7.60529 7.87041 7.60529 7.97148C7.60529 8.01416 7.62101 8.05459 7.64796 8.08828L10.5701 11.5697L7.64796 15.0489C7.62082 15.0818 7.60576 15.1231 7.60529 15.1657C7.60529 15.2646 7.68615 15.3454 7.78497 15.3454L9.26964 15.3387L11.5 12.6771L13.7304 15.3364L15.2128 15.3432C15.3116 15.3432 15.3925 15.2646 15.3925 15.1635C15.3925 15.1208 15.3768 15.0804 15.3498 15.0467L12.4321 11.5675L15.3543 8.08604C15.3813 8.05459 15.3947 8.01191 15.3947 7.96924Z" fill="#EEEEEE"/>
<path d="M11.5 1.45996C5.94316 1.45996 1.4375 5.96563 1.4375 11.5225C1.4375 17.0793 5.94316 21.585 11.5 21.585C17.0568 21.585 21.5625 17.0793 21.5625 11.5225C21.5625 5.96563 17.0568 1.45996 11.5 1.45996ZM11.5 19.8779C6.88652 19.8779 3.14453 16.1359 3.14453 11.5225C3.14453 6.90898 6.88652 3.16699 11.5 3.16699C16.1135 3.16699 19.8555 6.90898 19.8555 11.5225C19.8555 16.1359 16.1135 19.8779 11.5 19.8779Z" fill="#EEEEEE"/>
</svg>
