<svg width="31" height="30" viewBox="0 0 31 30" fill="none" xmlns="http://www.w3.org/2000/svg">
<path d="M12.0845 12.585C11.1074 12.585 10.3359 13.335 10.3359 14.25C10.3359 15.165 11.1245 15.915 12.0845 15.915C13.0617 15.915 13.8331 15.165 13.8331 14.25C13.8502 13.335 13.0617 12.585 12.0845 12.585ZM18.3417 12.585C17.3645 12.585 16.5931 13.335 16.5931 14.25C16.5931 15.165 17.3817 15.915 18.3417 15.915C19.3188 15.915 20.0902 15.165 20.0902 14.25C20.0902 13.335 19.3188 12.585 18.3417 12.585Z" fill="#F2F2F2"/>
<path d="M26.6732 0H3.70179C1.76464 0 0.1875 1.38 0.1875 3.09V23.37C0.1875 25.08 1.76464 26.46 3.70179 26.46H23.1418L22.2332 23.685L24.4275 25.47L26.5018 27.15L30.1875 30V3.09C30.1875 1.38 28.6104 0 26.6732 0ZM20.0561 19.59C20.0561 19.59 19.4389 18.945 18.9246 18.375C21.1704 17.82 22.0275 16.59 22.0275 16.59C21.3246 16.995 20.6561 17.28 20.0561 17.475C19.1989 17.79 18.3761 18 17.5704 18.12C16.1022 18.3565 14.5964 18.3514 13.1304 18.105C12.2697 17.9576 11.4261 17.7417 10.6104 17.46C10.1803 17.3153 9.76221 17.1449 9.35893 16.95C9.3075 16.92 9.25607 16.905 9.20464 16.875C9.17036 16.86 9.15321 16.845 9.13607 16.83C8.8275 16.68 8.65607 16.575 8.65607 16.575C8.65607 16.575 9.47893 17.775 11.6561 18.345C11.1418 18.915 10.5075 19.59 10.5075 19.59C6.71893 19.485 5.27893 17.31 5.27893 17.31C5.27893 12.48 7.7475 8.565 7.7475 8.565C10.2161 6.945 12.5646 6.99 12.5646 6.99L12.7361 7.17C9.65036 7.95 8.2275 9.135 8.2275 9.135C8.2275 9.135 8.60464 8.955 9.23893 8.7C11.0732 7.995 12.5304 7.8 13.1304 7.755C13.2332 7.74 13.3189 7.725 13.4218 7.725C16.3945 7.37293 19.4178 7.8673 22.0446 9.135C22.0446 9.135 20.6904 8.01 17.7761 7.23L18.0161 6.99C18.0161 6.99 20.3646 6.945 22.8332 8.565C22.8332 8.565 25.3018 12.48 25.3018 17.31C25.3018 17.31 23.8446 19.485 20.0561 19.59V19.59Z" fill="#F2F2F2"/>
</svg>
