<svg width="30" height="30" viewBox="0 0 30 30" fill="none" xmlns="http://www.w3.org/2000/svg">
<path d="M13.75 21.25C13.75 21.5815 13.8817 21.8995 14.1161 22.1339C14.3505 22.3683 14.6685 22.5 15 22.5C15.3315 22.5 15.6495 22.3683 15.8839 22.1339C16.1183 21.8995 16.25 21.5815 16.25 21.25C16.25 20.9185 16.1183 20.6005 15.8839 20.3661C15.6495 20.1317 15.3315 20 15 20C14.6685 20 14.3505 20.1317 14.1161 20.3661C13.8817 20.6005 13.75 20.9185 13.75 21.25ZM13.75 3.75V8.75H16.25V6.35C20.4875 6.9625 23.75 10.5875 23.75 15C23.75 17.3206 22.8281 19.5462 21.1872 21.1872C19.5462 22.8281 17.3206 23.75 15 23.75C12.6794 23.75 10.4538 22.8281 8.81282 21.1872C7.17187 19.5462 6.25 17.3206 6.25 15C6.25 12.9 6.9875 10.975 8.225 9.475L15 16.25L16.7625 14.4875L8.2625 5.9875V6.0125C5.525 8.0625 3.75 11.3125 3.75 15C3.75 17.9837 4.93526 20.8452 7.04505 22.955C9.15483 25.0647 12.0163 26.25 15 26.25C17.9837 26.25 20.8452 25.0647 22.955 22.955C25.0647 20.8452 26.25 17.9837 26.25 15C26.25 12.0163 25.0647 9.15483 22.955 7.04505C20.8452 4.93526 17.9837 3.75 15 3.75H13.75ZM22.5 15C22.5 14.6685 22.3683 14.3505 22.1339 14.1161C21.8995 13.8817 21.5815 13.75 21.25 13.75C20.9185 13.75 20.6005 13.8817 20.3661 14.1161C20.1317 14.3505 20 14.6685 20 15C20 15.3315 20.1317 15.6495 20.3661 15.8839C20.6005 16.1183 20.9185 16.25 21.25 16.25C21.5815 16.25 21.8995 16.1183 22.1339 15.8839C22.3683 15.6495 22.5 15.3315 22.5 15ZM7.5 15C7.5 15.3315 7.6317 15.6495 7.86612 15.8839C8.10054 16.1183 8.41848 16.25 8.75 16.25C9.08152 16.25 9.39946 16.1183 9.63388 15.8839C9.8683 15.6495 10 15.3315 10 15C10 14.6685 9.8683 14.3505 9.63388 14.1161C9.39946 13.8817 9.08152 13.75 8.75 13.75C8.41848 13.75 8.10054 13.8817 7.86612 14.1161C7.6317 14.3505 7.5 14.6685 7.5 15Z" fill="#EEEEEE"/>
</svg>
