<svg width="30" height="30" viewBox="0 0 30 30" fill="none" xmlns="http://www.w3.org/2000/svg">
<path d="M2.37316 30H27.6257C28.9309 30 29.9931 29.3691 29.9931 28.5938V1.40625C29.9931 0.630937 28.9309 0 27.6257 0H2.37316C1.06792 0 0.0057373 0.630937 0.0057373 1.40625V28.5938C0.0057373 29.3691 1.06792 30 2.37316 30ZM1.58402 1.40625C1.58402 1.28193 1.66716 1.1627 1.81515 1.07479C1.96315 0.986886 2.16387 0.9375 2.37316 0.9375H27.6257C27.835 0.9375 28.0357 0.986886 28.1837 1.07479C28.3317 1.1627 28.4148 1.28193 28.4148 1.40625V28.5938C28.4148 28.7181 28.3317 28.8373 28.1837 28.9252C28.0357 29.0131 27.835 29.0625 27.6257 29.0625H2.37316C2.16387 29.0625 1.96315 29.0131 1.81515 28.9252C1.66716 28.8373 1.58402 28.7181 1.58402 28.5938V1.40625Z" fill="white"/>
<path d="M3.95186 25.3125H26.0478C26.2571 25.3125 26.4578 25.2631 26.6058 25.1752C26.7538 25.0873 26.837 24.9681 26.837 24.8438V5.15625C26.837 5.03193 26.7538 4.9127 26.6058 4.82479C26.4578 4.73689 26.2571 4.6875 26.0478 4.6875H3.95186C3.74257 4.6875 3.54185 4.73689 3.39385 4.82479C3.24586 4.9127 3.16272 5.03193 3.16272 5.15625V24.8438C3.16272 24.9681 3.24586 25.0873 3.39385 25.1752C3.54185 25.2631 3.74257 25.3125 3.95186 25.3125ZM4.741 5.625H25.2587V24.375H4.741V5.625Z" fill="white"/>
<path d="M15.789 28.125C16.6606 28.125 17.3673 27.7053 17.3673 27.1875C17.3673 26.6697 16.6606 26.25 15.789 26.25C14.9173 26.25 14.2107 26.6697 14.2107 27.1875C14.2107 27.7053 14.9173 28.125 15.789 28.125Z" fill="white"/>
<path d="M11.8433 3.75H18.1565C18.3658 3.75 18.5665 3.70061 18.7145 3.61271C18.8625 3.5248 18.9456 3.40557 18.9456 3.28125C18.9456 3.15693 18.8625 3.0377 18.7145 2.94979C18.5665 2.86189 18.3658 2.8125 18.1565 2.8125H11.8433C11.634 2.8125 11.4333 2.86189 11.2853 2.94979C11.1373 3.0377 11.0542 3.15693 11.0542 3.28125C11.0542 3.40557 11.1373 3.5248 11.2853 3.61271C11.4333 3.70061 11.634 3.75 11.8433 3.75V3.75Z" fill="white"/>
</svg>
