<svg width="30" height="30" viewBox="0 0 30 30" fill="none" xmlns="http://www.w3.org/2000/svg">
<path d="M16.2526 8.76125C20.2126 8.76125 22.4601 11.3825 22.7863 14.5487H22.8863C23.4916 14.5479 24.0912 14.6664 24.6508 14.8973C25.2103 15.1282 25.7189 15.4671 26.1475 15.8946C26.576 16.3222 26.9162 16.8299 27.1485 17.3889C27.3808 17.9479 27.5007 18.5472 27.5013 19.1525C27.5005 19.7577 27.3805 20.3569 27.1481 20.9157C26.9157 21.4746 26.5756 21.9822 26.147 22.4095C25.7185 22.8369 25.21 23.1757 24.6505 23.4066C24.091 23.6374 23.4915 23.7558 22.8863 23.755H9.61756C9.01233 23.7558 8.41287 23.6374 7.85339 23.4066C7.29392 23.1757 6.7854 22.8369 6.35685 22.4095C5.92831 21.9822 5.58814 21.4746 5.35577 20.9157C5.1234 20.3569 5.00338 19.7577 5.00256 19.1525C5.00322 18.5472 5.12312 17.9479 5.35541 17.3889C5.58771 16.8299 5.92785 16.3222 6.35641 15.8946C6.78497 15.4671 7.29355 15.1282 7.85311 14.8973C8.41266 14.6664 9.01223 14.5479 9.61756 14.5487H9.71756C10.0463 11.3612 12.2926 8.76125 16.2526 8.76125V8.76125ZM16.2526 10.6325C13.6626 10.6325 11.4063 12.675 11.4063 15.495C11.4063 15.9412 11.0076 16.2925 10.5513 16.2925H9.68881C8.11131 16.2925 6.83381 17.5425 6.83381 19.0875C6.83381 20.6313 8.11131 21.8825 9.68756 21.8825H22.8163C24.3926 21.8825 25.6701 20.6325 25.6701 19.0875C25.6701 17.5438 24.3926 16.2925 22.8163 16.2925H21.9538C21.4963 16.2925 21.0976 15.9425 21.0976 15.495C21.0976 12.6387 18.8413 10.6325 16.2526 10.6325V10.6325ZM12.5001 5C14.5213 5 16.3126 6.01875 17.3751 7.5775C17.0026 7.53297 16.6277 7.51084 16.2526 7.51125C15.7588 7.51125 15.2838 7.5475 14.8288 7.6175C14.2756 7.22539 13.6323 6.97941 12.9586 6.90238C12.2849 6.82536 11.6026 6.91979 10.9752 7.1769C10.3477 7.43402 9.79539 7.84549 9.36946 8.37312C8.94353 8.90075 8.65781 9.52743 8.53881 10.195L8.44756 10.7125C8.39669 11.0021 8.24536 11.2645 8.02017 11.4536C7.79498 11.6426 7.51035 11.7463 7.21631 11.7463H6.60381C6.16337 11.7458 5.73267 11.8759 5.36616 12.1202C4.99964 12.3644 4.71377 12.7119 4.54467 13.1186C4.37558 13.5252 4.33084 13.9729 4.41612 14.4051C4.50141 14.8372 4.71288 15.2343 5.02381 15.5463C4.63006 16.0463 4.31756 16.615 4.10506 17.23C3.44052 16.7203 2.94789 16.0195 2.69335 15.2216C2.4388 14.4237 2.43455 13.5671 2.68115 12.7667C2.92774 11.9664 3.41339 11.2606 4.07283 10.7444C4.73227 10.2281 5.53391 9.92605 6.37006 9.87875L6.69131 9.87125C6.93302 8.50627 7.64763 7.26997 8.7098 6.37924C9.77196 5.4885 11.1138 5.0002 12.5001 5V5Z" fill="#EEEEEE"/>
</svg>
