<svg width="580" height="473" viewBox="0 0 580 473" fill="none" xmlns="http://www.w3.org/2000/svg">
<g clip-path="url(#clip0)">
<g opacity="0.3">
<path opacity="0.3" d="M410.984 23.8997C412.08 24.4941 413.171 25.0989 414.255 25.7141" stroke="#2196F3" stroke-width="4" stroke-miterlimit="10"/>
<path opacity="0.3" d="M420.621 29.4241C486.484 69.5354 530.473 142.045 530.473 224.837C530.487 244.068 528.079 263.224 523.308 281.852" stroke="#2196F3" stroke-width="4" stroke-miterlimit="10" stroke-dasharray="11.85 11.85"/>
<path opacity="0.3" d="M522.374 285.425C522.046 286.626 521.707 287.825 521.358 289.023" stroke="#2196F3" stroke-width="4" stroke-miterlimit="10"/>
</g>
<path opacity="0.21" d="M73.8239 224.837C73.8239 125.522 137.125 41.003 225.546 9.47131" stroke="#2196F3" stroke-width="4" stroke-miterlimit="10" stroke-dasharray="12 12"/>
<path opacity="0.5" d="M410.984 425.78C377.58 443.937 340.16 453.419 302.148 453.359C227.683 453.359 161.54 417.681 119.862 362.468" stroke="#2196F3" stroke-width="4" stroke-miterlimit="10" stroke-dasharray="12 12"/>
<g opacity="0.21">
<path opacity="0.21" d="M449.921 267.935C449.572 269.132 449.208 270.325 448.83 271.514" stroke="#2196F3" stroke-width="4" stroke-miterlimit="10"/>
<path opacity="0.21" d="M446.407 278.56C424.602 337.128 368.253 378.848 302.148 378.848C217.167 378.848 148.271 309.892 148.271 224.837C148.271 139.782 217.167 70.8262 302.148 70.8262C335.874 70.777 368.673 81.8672 395.459 102.377" stroke="#2196F3" stroke-width="4" stroke-miterlimit="10" stroke-dasharray="11.95 11.95"/>
<path opacity="0.21" d="M398.4 104.659C399.371 105.44 400.333 106.232 401.284 107.034" stroke="#2196F3" stroke-width="4" stroke-miterlimit="10"/>
</g>
<g opacity="0.5">
<path opacity="0.5" d="M289.078 138.541C290.324 138.358 291.57 138.2 292.816 138.067" stroke="#2196F3" stroke-width="4" stroke-miterlimit="10"/>
<path opacity="0.5" d="M299.968 137.575C300.695 137.575 301.421 137.575 302.148 137.575C317.35 137.575 332.287 141.551 345.479 149.11C358.672 156.668 369.662 167.547 377.359 180.667C385.056 193.786 389.194 208.692 389.361 223.906C389.529 239.119 385.721 254.112 378.314 267.399" stroke="#2196F3" stroke-width="4" stroke-miterlimit="10" stroke-dasharray="11.56 11.56"/>
<path opacity="0.5" d="M376.495 270.504C375.843 271.568 375.168 272.607 374.471 273.622" stroke="#2196F3" stroke-width="4" stroke-miterlimit="10"/>
</g>
<path d="M517.595 339.815L454.811 306.637L487.561 252.958C487.819 252.536 488.228 252.228 488.705 252.097C489.182 251.966 489.691 252.022 490.128 252.253L542.546 279.957C542.977 280.187 543.306 280.572 543.467 281.034C543.627 281.496 543.608 282.002 543.412 282.451L517.595 339.815Z" fill="url(#paint0_linear)"/>
<path d="M516.555 336.928L457.783 305.87L488.384 255.714C488.642 255.292 489.051 254.984 489.528 254.853C490.004 254.722 490.513 254.778 490.95 255.009L539.817 280.836C540.249 281.066 540.577 281.451 540.738 281.913C540.898 282.375 540.879 282.881 540.683 283.33L516.555 336.928Z" fill="#F2F2F2"/>
<path d="M476.142 418.385L413.351 385.214L387.535 442.578C387.339 443.027 387.32 443.533 387.48 443.995C387.641 444.457 387.969 444.842 388.401 445.072L440.831 472.751C441.268 472.982 441.777 473.038 442.254 472.907C442.731 472.776 443.14 472.468 443.398 472.046L476.142 418.385Z" fill="url(#paint1_linear)"/>
<path d="M473.158 419.127L414.385 388.07L390.301 441.668C390.105 442.116 390.086 442.622 390.246 443.084C390.407 443.547 390.735 443.931 391.167 444.162L440.034 469.982C440.471 470.213 440.98 470.269 441.457 470.138C441.933 470.008 442.342 469.7 442.6 469.277L473.158 419.127Z" fill="#F2F2F2"/>
<path d="M444.152 296.022L398.612 382.361C398.237 383.07 398.509 383.949 399.218 384.324L485.482 429.903C486.191 430.278 487.069 430.006 487.444 429.297L532.983 342.957C533.358 342.248 533.086 341.369 532.377 340.994L446.113 295.415C445.404 295.04 444.526 295.312 444.152 296.022Z" fill="url(#paint2_linear)"/>
<path d="M530.383 341.639L446.791 297.472C446.082 297.097 445.204 297.369 444.829 298.078L400.7 381.743C400.326 382.453 400.597 383.331 401.306 383.706L484.899 427.873C485.608 428.248 486.486 427.976 486.86 427.267L530.989 343.602C531.364 342.893 531.092 342.014 530.383 341.639Z" fill="#F2F2F2"/>
<path d="M524.704 360.009L521.013 358.059C520.557 357.818 519.991 357.992 519.75 358.449L513.57 370.167C513.329 370.623 513.504 371.189 513.96 371.43L517.651 373.381C518.108 373.622 518.673 373.447 518.914 372.99L525.094 361.273C525.335 360.816 525.161 360.25 524.704 360.009Z" fill="#F2F2F2"/>
<path d="M524.263 343.532L448.687 303.6C447.978 303.225 447.1 303.497 446.726 304.206L406.828 379.848C406.454 380.558 406.725 381.436 407.434 381.811L483.011 421.743C483.72 422.118 484.598 421.846 484.972 421.137L524.87 345.495C525.244 344.785 524.972 343.906 524.263 343.532Z" fill="#F4D35E"/>
<path d="M492.67 362.792L488.82 354.156L462.299 365.903L457.259 354.767L448.319 358.739L455.733 374.807L457.508 378.916L492.67 362.792Z" fill="url(#paint3_linear)"/>
<path d="M492.252 362.412L488.708 354.686L462.05 366.951L456.829 355.59L449.111 359.138L456.113 374.352L457.932 378.199L492.252 362.412Z" fill="white"/>
<path d="M193.267 0.618365L22.3586 73.0516C18.4774 74.6965 16.6633 79.179 18.3068 83.0635L153.725 403.14C155.368 407.025 159.847 408.841 163.728 407.196L334.637 334.763C338.518 333.118 340.332 328.635 338.689 324.751L203.271 4.67361C201.627 0.78907 197.149 -1.02653 193.267 0.618365Z" fill="url(#paint4_linear)"/>
<path d="M191.875 6.53759L27.5632 76.1748C23.2416 78.0063 21.2218 82.9975 23.0517 87.3228L153.976 396.778C155.806 401.103 160.792 403.125 165.114 401.293L329.426 331.656C333.747 329.824 335.767 324.833 333.937 320.508L203.013 11.053C201.183 6.72766 196.196 4.70605 191.875 6.53759Z" fill="white"/>
<path d="M158.376 30.3282C159.313 33.9964 158.908 37.8792 157.234 41.2746C155.56 44.67 152.728 47.3538 149.249 48.8407L87.0934 75.1909C83.6053 76.6574 79.7079 76.8261 76.1062 75.6664C72.5046 74.5068 69.4365 72.0954 67.4569 68.8683L34.5321 82.8228C33.6338 83.2027 32.8192 83.756 32.1347 84.4512C31.4503 85.1464 30.9095 85.9698 30.5432 86.8744C30.177 87.779 29.9924 88.7469 30.0002 89.7229C30.008 90.6988 30.208 91.6637 30.5886 92.5623L155.472 387.683C155.852 388.582 156.405 389.397 157.099 390.082C157.794 390.767 158.617 391.309 159.52 391.675C160.424 392.042 161.391 392.227 162.366 392.219C163.342 392.211 164.306 392.011 165.203 391.63L322.464 324.975C323.362 324.595 324.177 324.042 324.861 323.347C325.546 322.651 326.086 321.828 326.453 320.923C326.819 320.019 327.004 319.051 326.996 318.075C326.988 317.099 326.788 316.134 326.407 315.236L201.536 20.1024C201.156 19.2034 200.604 18.388 199.909 17.703C199.214 17.0179 198.392 16.4766 197.488 16.1101C196.584 15.7435 195.617 15.5588 194.642 15.5666C193.667 15.5744 192.703 15.7745 191.805 16.1555L158.376 30.3282Z" fill="#F4D35E"/>
<path d="M133.971 45.2741L96.1601 61.2988C95.5264 61.5673 95.2303 62.2992 95.4986 62.9334L95.5885 63.1458C95.8568 63.78 96.588 64.0764 97.2217 63.8079L135.033 47.7832C135.666 47.5147 135.962 46.7828 135.694 46.1486L135.604 45.9362C135.336 45.302 134.605 45.0055 133.971 45.2741Z" fill="#DBDBDB"/>
<path d="M144.696 43.6873C145.526 43.3355 145.914 42.3768 145.563 41.546C145.211 40.7152 144.253 40.3269 143.423 40.6787C142.593 41.0305 142.205 41.9892 142.557 42.82C142.908 43.6508 143.866 44.0391 144.696 43.6873Z" fill="#DBDBDB"/>
<path d="M205.124 165.939L188.528 162.572L178.068 213.532L156.581 209.311L153.086 226.502L184.229 232.388L192.06 234.065L205.124 165.939Z" fill="url(#paint5_linear)"/>
<path d="M204.14 166.144L189.188 163.295L179.339 214.991L157.341 210.795L154.488 225.76L183.949 231.359L191.462 232.706L204.14 166.144Z" fill="white"/>
<path opacity="0.3" d="M571.278 24.0681C576.095 24.0681 580 20.1598 580 15.3387C580 10.5176 576.095 6.60938 571.278 6.60938C566.461 6.60938 562.556 10.5176 562.556 15.3387C562.556 20.1598 566.461 24.0681 571.278 24.0681Z" fill="#80DEEA"/>
<path opacity="0.3" d="M481.257 222.717C486.074 222.717 489.979 218.809 489.979 213.988C489.979 209.167 486.074 205.258 481.257 205.258C476.44 205.258 472.535 209.167 472.535 213.988C472.535 218.809 476.44 222.717 481.257 222.717Z" fill="#80DEEA"/>
<path opacity="0.5" d="M8.7218 59.609C13.5387 59.609 17.4436 55.7007 17.4436 50.8796C17.4436 46.0585 13.5387 42.1503 8.7218 42.1503C3.90488 42.1503 0 46.0585 0 50.8796C0 55.7007 3.90488 59.609 8.7218 59.609Z" fill="#80DEEA"/>
<path opacity="0.3" d="M17.4436 32.7974C22.2605 32.7974 26.1654 28.8892 26.1654 24.0681C26.1654 19.247 22.2605 15.3387 17.4436 15.3387C12.6267 15.3387 8.7218 19.247 8.7218 24.0681C8.7218 28.8892 12.6267 32.7974 17.4436 32.7974Z" fill="#80DEEA"/>
<g opacity="0.2">
<path opacity="0.2" d="M98.3072 79.5556L160.469 53.2116C163.948 51.7247 166.78 49.0409 168.454 45.6455C170.128 42.2501 170.533 38.3673 169.595 34.6992L201.368 21.2248L200.894 20.1087C200.515 19.2096 199.962 18.3942 199.267 17.7092C198.573 17.0242 197.75 16.4829 196.846 16.1163C195.942 15.7497 194.975 15.5651 194 15.5729C193.025 15.5807 192.061 15.7808 191.163 16.1618L157.74 30.3282C158.678 33.9964 158.273 37.8792 156.599 41.2746C154.925 44.67 152.092 47.3538 148.613 48.8407L86.4704 75.1909C84.807 75.8941 83.0343 76.3034 81.2311 76.4005C83.4611 78.5339 86.265 79.9689 89.2986 80.5294C92.3321 81.0899 95.4632 80.7514 98.3072 79.5556Z" fill="white"/>
<path opacity="0.2" d="M41.8086 96.9207C41.4279 96.0221 41.228 95.0572 41.2202 94.0813C41.2124 93.1053 41.3969 92.1374 41.7632 91.2328C42.1294 90.3282 42.6703 89.5048 43.3547 88.8096C44.0392 88.1144 44.8538 87.5611 45.7521 87.1812L74.1291 75.1534C71.1016 73.8686 68.551 71.669 66.8339 68.8621L33.9091 82.8166C33.0108 83.1964 32.1962 83.7497 31.5117 84.4449C30.8273 85.1401 30.2865 85.9636 29.9202 86.8681C29.554 87.7727 29.3695 88.7406 29.3773 89.7166C29.385 90.6926 29.585 91.6574 29.9656 92.556L154.849 387.683C155.229 388.582 155.782 389.397 156.476 390.082C157.171 390.767 157.994 391.309 158.897 391.675C159.801 392.042 160.768 392.227 161.743 392.219C162.719 392.211 163.683 392.011 164.58 391.63L166.219 390.938L41.8086 96.9207Z" fill="white"/>
</g>
</g>
<defs>
<linearGradient id="paint0_linear" x1="499.227" y1="339.789" x2="499.224" y2="252.006" gradientUnits="userSpaceOnUse">
<stop stop-color="#808080" stop-opacity="0.25"/>
<stop offset="0.54" stop-color="#808080" stop-opacity="0.12"/>
<stop offset="1" stop-color="#808080" stop-opacity="0.1"/>
</linearGradient>
<linearGradient id="paint1_linear" x1="97827.9" y1="69789.5" x2="92096.6" y2="58809" gradientUnits="userSpaceOnUse">
<stop stop-color="#808080" stop-opacity="0.25"/>
<stop offset="0.54" stop-color="#808080" stop-opacity="0.12"/>
<stop offset="1" stop-color="#808080" stop-opacity="0.1"/>
</linearGradient>
<linearGradient id="paint2_linear" x1="66242" y1="115189" x2="66240.3" y2="93449.8" gradientUnits="userSpaceOnUse">
<stop stop-color="#808080" stop-opacity="0.25"/>
<stop offset="0.54" stop-color="#808080" stop-opacity="0.12"/>
<stop offset="1" stop-color="#808080" stop-opacity="0.1"/>
</linearGradient>
<linearGradient id="paint3_linear" x1="460.136" y1="380.303" x2="477.287" y2="348.02" gradientUnits="userSpaceOnUse">
<stop stop-opacity="0.12"/>
<stop offset="0.55" stop-opacity="0.09"/>
<stop offset="1" stop-opacity="0.02"/>
</linearGradient>
<linearGradient id="paint4_linear" x1="156511" y1="214940" x2="207622" y2="16679.1" gradientUnits="userSpaceOnUse">
<stop stop-color="#808080" stop-opacity="0.25"/>
<stop offset="0.54" stop-color="#808080" stop-opacity="0.12"/>
<stop offset="1" stop-color="#808080" stop-opacity="0.1"/>
</linearGradient>
<linearGradient id="paint5_linear" x1="44207.3" y1="25532.7" x2="40845.8" y2="18814.1" gradientUnits="userSpaceOnUse">
<stop stop-opacity="0.12"/>
<stop offset="0.55" stop-opacity="0.09"/>
<stop offset="1" stop-opacity="0.02"/>
</linearGradient>
<clipPath id="clip0">
<rect width="580" height="473" fill="white"/>
</clipPath>
</defs>
</svg>
