<svg width="127" height="14" viewBox="0 0 127 14" fill="none" xmlns="http://www.w3.org/2000/svg">
<path d="M6.357 7.985H2.405L1.677 10H0.429L3.705 0.991H5.07L8.333 10H7.085L6.357 7.985ZM6.019 7.023L4.381 2.447L2.743 7.023H6.019ZM11.0738 0.38V10H9.89077V0.38H11.0738ZM14.403 0.38V10H13.22V0.38H14.403ZM24.916 10L22.758 6.295H21.328V10H20.145V0.939H23.07C23.7547 0.939 24.331 1.056 24.799 1.29C25.2757 1.524 25.631 1.84033 25.865 2.239C26.099 2.63767 26.216 3.09267 26.216 3.604C26.216 4.228 26.034 4.77833 25.67 5.255C25.3147 5.73167 24.7774 6.048 24.058 6.204L26.333 10H24.916ZM21.328 5.346H23.07C23.7114 5.346 24.1924 5.19 24.513 4.878C24.8337 4.55733 24.994 4.13267 24.994 3.604C24.994 3.06667 24.8337 2.65067 24.513 2.356C24.201 2.06133 23.72 1.914 23.07 1.914H21.328V5.346ZM28.7952 1.719C28.5699 1.719 28.3792 1.641 28.2232 1.485C28.0672 1.329 27.9892 1.13833 27.9892 0.912999C27.9892 0.687666 28.0672 0.497 28.2232 0.341C28.3792 0.185 28.5699 0.107 28.7952 0.107C29.0119 0.107 29.1939 0.185 29.3412 0.341C29.4972 0.497 29.5752 0.687666 29.5752 0.912999C29.5752 1.13833 29.4972 1.329 29.3412 1.485C29.1939 1.641 29.0119 1.719 28.7952 1.719ZM29.3672 2.876V10H28.1842V2.876H29.3672ZM34.4514 2.759C35.0668 2.759 35.6041 2.89333 36.0634 3.162C36.5314 3.43067 36.8781 3.76867 37.1034 4.176V2.876H38.2994V10.156C38.2994 10.806 38.1608 11.3823 37.8834 11.885C37.6061 12.3963 37.2074 12.795 36.6874 13.081C36.1761 13.367 35.5781 13.51 34.8934 13.51C33.9574 13.51 33.1774 13.289 32.5534 12.847C31.9294 12.405 31.5611 11.8027 31.4484 11.04H32.6184C32.7484 11.4733 33.0171 11.82 33.4244 12.08C33.8318 12.3487 34.3214 12.483 34.8934 12.483C35.5434 12.483 36.0721 12.2793 36.4794 11.872C36.8954 11.4647 37.1034 10.8927 37.1034 10.156V8.661C36.8694 9.077 36.5228 9.42367 36.0634 9.701C35.6041 9.97833 35.0668 10.117 34.4514 10.117C33.8188 10.117 33.2424 9.961 32.7224 9.649C32.2111 9.337 31.8081 8.89933 31.5134 8.336C31.2188 7.77267 31.0714 7.13133 31.0714 6.412C31.0714 5.684 31.2188 5.047 31.5134 4.501C31.8081 3.94633 32.2111 3.51733 32.7224 3.214C33.2424 2.91067 33.8188 2.759 34.4514 2.759ZM37.1034 6.425C37.1034 5.88767 36.9951 5.41967 36.7784 5.021C36.5618 4.62233 36.2671 4.319 35.8944 4.111C35.5304 3.89433 35.1274 3.786 34.6854 3.786C34.2434 3.786 33.8404 3.89 33.4764 4.098C33.1124 4.306 32.8221 4.60933 32.6054 5.008C32.3888 5.40667 32.2804 5.87467 32.2804 6.412C32.2804 6.958 32.3888 7.43467 32.6054 7.842C32.8221 8.24067 33.1124 8.54833 33.4764 8.765C33.8404 8.973 34.2434 9.077 34.6854 9.077C35.1274 9.077 35.5304 8.973 35.8944 8.765C36.2671 8.54833 36.5618 8.24067 36.7784 7.842C36.9951 7.43467 37.1034 6.96233 37.1034 6.425ZM43.9646 2.746C44.5019 2.746 44.9872 2.863 45.4206 3.097C45.8539 3.32233 46.1919 3.66467 46.4346 4.124C46.6859 4.58333 46.8116 5.14233 46.8116 5.801V10H45.6416V5.97C45.6416 5.25933 45.4639 4.71767 45.1086 4.345C44.7532 3.96367 44.2679 3.773 43.6526 3.773C43.0286 3.773 42.5302 3.968 42.1576 4.358C41.7936 4.748 41.6116 5.31567 41.6116 6.061V10H40.4286V0.38H41.6116V3.89C41.8456 3.526 42.1662 3.24433 42.5736 3.045C42.9896 2.84567 43.4532 2.746 43.9646 2.746ZM50.317 3.851V8.05C50.317 8.39667 50.3907 8.64367 50.538 8.791C50.6853 8.92967 50.941 8.999 51.305 8.999H52.176V10H51.11C50.4513 10 49.9573 9.84833 49.628 9.545C49.2987 9.24167 49.134 8.74333 49.134 8.05V3.851H48.211V2.876H49.134V1.082H50.317V2.876H52.176V3.851H50.317ZM56.2614 10.117C55.7154 10.117 55.2257 10.026 54.7924 9.844C54.359 9.65333 54.0167 9.39333 53.7654 9.064C53.514 8.726 53.3754 8.34033 53.3494 7.907H54.5714C54.606 8.26233 54.7707 8.55267 55.0654 8.778C55.3687 9.00333 55.763 9.116 56.2484 9.116C56.699 9.116 57.0544 9.01633 57.3144 8.817C57.5744 8.61767 57.7044 8.36633 57.7044 8.063C57.7044 7.751 57.5657 7.52133 57.2884 7.374C57.011 7.218 56.582 7.06633 56.0014 6.919C55.4727 6.78033 55.0394 6.64167 54.7014 6.503C54.372 6.35567 54.086 6.14333 53.8434 5.866C53.6094 5.58 53.4924 5.20733 53.4924 4.748C53.4924 4.384 53.6007 4.05033 53.8174 3.747C54.034 3.44367 54.3417 3.20533 54.7404 3.032C55.139 2.85 55.594 2.759 56.1054 2.759C56.894 2.759 57.531 2.95833 58.0164 3.357C58.5017 3.75567 58.7617 4.30167 58.7964 4.995H57.6134C57.5874 4.62233 57.4357 4.32333 57.1584 4.098C56.8897 3.87267 56.5257 3.76 56.0664 3.76C55.6417 3.76 55.3037 3.851 55.0524 4.033C54.801 4.215 54.6754 4.45333 54.6754 4.748C54.6754 4.982 54.749 5.177 54.8964 5.333C55.0524 5.48033 55.243 5.60167 55.4684 5.697C55.7024 5.78367 56.023 5.88333 56.4304 5.996C56.9417 6.13467 57.3577 6.27333 57.6784 6.412C57.999 6.542 58.272 6.74133 58.4974 7.01C58.7314 7.27867 58.8527 7.62967 58.8614 8.063C58.8614 8.453 58.753 8.804 58.5364 9.116C58.3197 9.428 58.012 9.675 57.6134 9.857C57.2234 10.0303 56.7727 10.117 56.2614 10.117ZM69.0282 10L66.8702 6.295H65.4402V10H64.2572V0.939H67.1822C67.8668 0.939 68.4432 1.056 68.9112 1.29C69.3878 1.524 69.7432 1.84033 69.9772 2.239C70.2112 2.63767 70.3282 3.09267 70.3282 3.604C70.3282 4.228 70.1462 4.77833 69.7822 5.255C69.4268 5.73167 68.8895 6.048 68.1702 6.204L70.4452 10H69.0282ZM65.4402 5.346H67.1822C67.8235 5.346 68.3045 5.19 68.6252 4.878C68.9458 4.55733 69.1062 4.13267 69.1062 3.604C69.1062 3.06667 68.9458 2.65067 68.6252 2.356C68.3132 2.06133 67.8322 1.914 67.1822 1.914H65.4402V5.346ZM78.7963 6.165C78.7963 6.39033 78.7833 6.62867 78.7573 6.88H73.0633C73.1067 7.582 73.345 8.13233 73.7783 8.531C74.2203 8.921 74.7533 9.116 75.3773 9.116C75.8887 9.116 76.3133 8.999 76.6513 8.765C76.998 8.52233 77.2407 8.20167 77.3793 7.803H78.6533C78.4627 8.48767 78.0813 9.04667 77.5093 9.48C76.9373 9.90467 76.2267 10.117 75.3773 10.117C74.7013 10.117 74.0947 9.96533 73.5573 9.662C73.0287 9.35867 72.6127 8.92967 72.3093 8.375C72.006 7.81167 71.8543 7.16167 71.8543 6.425C71.8543 5.68833 72.0017 5.04267 72.2963 4.488C72.591 3.93333 73.0027 3.50867 73.5313 3.214C74.0687 2.91067 74.684 2.759 75.3773 2.759C76.0533 2.759 76.6513 2.90633 77.1713 3.201C77.6913 3.49567 78.09 3.903 78.3673 4.423C78.6533 4.93433 78.7963 5.515 78.7963 6.165ZM77.5743 5.918C77.5743 5.46733 77.4747 5.08167 77.2753 4.761C77.076 4.43167 76.803 4.18467 76.4563 4.02C76.1183 3.84667 75.7413 3.76 75.3253 3.76C74.7273 3.76 74.216 3.95067 73.7913 4.332C73.3753 4.71333 73.137 5.242 73.0763 5.918H77.5743ZM83.0099 10.117C82.4639 10.117 81.9742 10.026 81.5409 9.844C81.1075 9.65333 80.7652 9.39333 80.5139 9.064C80.2625 8.726 80.1239 8.34033 80.0979 7.907H81.3199C81.3545 8.26233 81.5192 8.55267 81.8139 8.778C82.1172 9.00333 82.5115 9.116 82.9969 9.116C83.4475 9.116 83.8029 9.01633 84.0629 8.817C84.3229 8.61767 84.4529 8.36633 84.4529 8.063C84.4529 7.751 84.3142 7.52133 84.0369 7.374C83.7595 7.218 83.3305 7.06633 82.7499 6.919C82.2212 6.78033 81.7879 6.64167 81.4499 6.503C81.1205 6.35567 80.8345 6.14333 80.5919 5.866C80.3579 5.58 80.2409 5.20733 80.2409 4.748C80.2409 4.384 80.3492 4.05033 80.5659 3.747C80.7825 3.44367 81.0902 3.20533 81.4889 3.032C81.8875 2.85 82.3425 2.759 82.8539 2.759C83.6425 2.759 84.2795 2.95833 84.7649 3.357C85.2502 3.75567 85.5102 4.30167 85.5449 4.995H84.3619C84.3359 4.62233 84.1842 4.32333 83.9069 4.098C83.6382 3.87267 83.2742 3.76 82.8149 3.76C82.3902 3.76 82.0522 3.851 81.8009 4.033C81.5495 4.215 81.4239 4.45333 81.4239 4.748C81.4239 4.982 81.4975 5.177 81.6449 5.333C81.8009 5.48033 81.9915 5.60167 82.2169 5.697C82.4509 5.78367 82.7715 5.88333 83.1789 5.996C83.6902 6.13467 84.1062 6.27333 84.4269 6.412C84.7475 6.542 85.0205 6.74133 85.2459 7.01C85.4799 7.27867 85.6012 7.62967 85.6099 8.063C85.6099 8.453 85.5015 8.804 85.2849 9.116C85.0682 9.428 84.7605 9.675 84.3619 9.857C83.9719 10.0303 83.5212 10.117 83.0099 10.117ZM93.9099 6.165C93.9099 6.39033 93.8969 6.62867 93.8709 6.88H88.1769C88.2202 7.582 88.4585 8.13233 88.8919 8.531C89.3339 8.921 89.8669 9.116 90.4909 9.116C91.0022 9.116 91.4269 8.999 91.7649 8.765C92.1115 8.52233 92.3542 8.20167 92.4929 7.803H93.7669C93.5762 8.48767 93.1949 9.04667 92.6229 9.48C92.0509 9.90467 91.3402 10.117 90.4909 10.117C89.8149 10.117 89.2082 9.96533 88.6709 9.662C88.1422 9.35867 87.7262 8.92967 87.4229 8.375C87.1195 7.81167 86.9679 7.16167 86.9679 6.425C86.9679 5.68833 87.1152 5.04267 87.4099 4.488C87.7045 3.93333 88.1162 3.50867 88.6449 3.214C89.1822 2.91067 89.7975 2.759 90.4909 2.759C91.1669 2.759 91.7649 2.90633 92.2849 3.201C92.8049 3.49567 93.2035 3.903 93.4809 4.423C93.7669 4.93433 93.9099 5.515 93.9099 6.165ZM92.6879 5.918C92.6879 5.46733 92.5882 5.08167 92.3889 4.761C92.1895 4.43167 91.9165 4.18467 91.5699 4.02C91.2319 3.84667 90.8549 3.76 90.4389 3.76C89.8409 3.76 89.3295 3.95067 88.9049 4.332C88.4889 4.71333 88.2505 5.242 88.1899 5.918H92.6879ZM96.7844 4.033C96.9924 3.62567 97.2871 3.30933 97.6684 3.084C98.0584 2.85867 98.5307 2.746 99.0854 2.746V3.968H98.7734C97.4474 3.968 96.7844 4.68733 96.7844 6.126V10H95.6014V2.876H96.7844V4.033ZM103.233 8.908L105.443 2.876H106.704L103.909 10H102.531L99.736 2.876H101.01L103.233 8.908ZM114.498 6.165C114.498 6.39033 114.485 6.62867 114.459 6.88H108.765C108.808 7.582 109.047 8.13233 109.48 8.531C109.922 8.921 110.455 9.116 111.079 9.116C111.59 9.116 112.015 8.999 112.353 8.765C112.7 8.52233 112.942 8.20167 113.081 7.803H114.355C114.164 8.48767 113.783 9.04667 113.211 9.48C112.639 9.90467 111.928 10.117 111.079 10.117C110.403 10.117 109.796 9.96533 109.259 9.662C108.73 9.35867 108.314 8.92967 108.011 8.375C107.708 7.81167 107.556 7.16167 107.556 6.425C107.556 5.68833 107.703 5.04267 107.998 4.488C108.293 3.93333 108.704 3.50867 109.233 3.214C109.77 2.91067 110.386 2.759 111.079 2.759C111.755 2.759 112.353 2.90633 112.873 3.201C113.393 3.49567 113.792 3.903 114.069 4.423C114.355 4.93433 114.498 5.515 114.498 6.165ZM113.276 5.918C113.276 5.46733 113.176 5.08167 112.977 4.761C112.778 4.43167 112.505 4.18467 112.158 4.02C111.82 3.84667 111.443 3.76 111.027 3.76C110.429 3.76 109.918 3.95067 109.493 4.332C109.077 4.71333 108.839 5.242 108.778 5.918H113.276ZM115.748 6.412C115.748 5.684 115.895 5.047 116.19 4.501C116.484 3.94633 116.887 3.51733 117.399 3.214C117.919 2.91067 118.499 2.759 119.141 2.759C119.695 2.759 120.211 2.889 120.688 3.149C121.164 3.40033 121.528 3.734 121.78 4.15V0.38H122.976V10H121.78V8.661C121.546 9.08567 121.199 9.43667 120.74 9.714C120.28 9.98267 119.743 10.117 119.128 10.117C118.495 10.117 117.919 9.961 117.399 9.649C116.887 9.337 116.484 8.89933 116.19 8.336C115.895 7.77267 115.748 7.13133 115.748 6.412ZM121.78 6.425C121.78 5.88767 121.671 5.41967 121.455 5.021C121.238 4.62233 120.943 4.319 120.571 4.111C120.207 3.89433 119.804 3.786 119.362 3.786C118.92 3.786 118.517 3.89 118.153 4.098C117.789 4.306 117.498 4.60933 117.282 5.008C117.065 5.40667 116.957 5.87467 116.957 6.412C116.957 6.958 117.065 7.43467 117.282 7.842C117.498 8.24067 117.789 8.54833 118.153 8.765C118.517 8.973 118.92 9.077 119.362 9.077C119.804 9.077 120.207 8.973 120.571 8.765C120.943 8.54833 121.238 8.24067 121.455 7.842C121.671 7.43467 121.78 6.96233 121.78 6.425ZM125.482 10.078C125.256 10.078 125.066 10 124.91 9.844C124.754 9.688 124.676 9.49733 124.676 9.272C124.676 9.04667 124.754 8.856 124.91 8.7C125.066 8.544 125.256 8.466 125.482 8.466C125.698 8.466 125.88 8.544 126.028 8.7C126.184 8.856 126.262 9.04667 126.262 9.272C126.262 9.49733 126.184 9.688 126.028 9.844C125.88 10 125.698 10.078 125.482 10.078Z" fill="#EEEEEE"/>
</svg>
