<svg width="298" height="243" viewBox="0 0 298 243" fill="none" xmlns="http://www.w3.org/2000/svg">
<g clip-path="url(#clip0)">
<g opacity="0.3">
<path opacity="0.3" d="M211.161 12.2783C211.724 12.5837 212.284 12.8944 212.841 13.2105" stroke="#2196F3" stroke-width="4" stroke-miterlimit="10"/>
<path opacity="0.3" d="M216.112 15.1165C249.952 35.7234 272.553 72.9747 272.553 115.508C272.56 125.388 271.324 135.229 268.872 144.799" stroke="#2196F3" stroke-width="4" stroke-miterlimit="10" stroke-dasharray="11.85 11.85"/>
<path opacity="0.3" d="M268.392 146.635C268.224 147.252 268.05 147.868 267.87 148.483" stroke="#2196F3" stroke-width="4" stroke-miterlimit="10"/>
</g>
<path opacity="0.21" d="M37.9302 115.508C37.9302 64.4859 70.4541 21.065 115.884 4.86584" stroke="#2196F3" stroke-width="4" stroke-miterlimit="10" stroke-dasharray="12 12"/>
<path opacity="0.5" d="M211.161 218.741C193.998 228.069 174.772 232.94 155.242 232.909C116.982 232.909 82.9982 214.58 61.5845 186.215" stroke="#2196F3" stroke-width="4" stroke-miterlimit="10" stroke-dasharray="12 12"/>
<g opacity="0.21">
<path opacity="0.21" d="M231.166 137.65C230.987 138.265 230.8 138.877 230.606 139.488" stroke="#2196F3" stroke-width="4" stroke-miterlimit="10"/>
<path opacity="0.21" d="M229.361 143.108C218.158 173.197 189.206 194.63 155.242 194.63C111.579 194.63 76.1804 159.205 76.1804 115.508C76.1804 71.8119 111.579 36.3864 155.242 36.3864C172.57 36.3612 189.422 42.0586 203.184 52.5952" stroke="#2196F3" stroke-width="4" stroke-miterlimit="10" stroke-dasharray="11.95 11.95"/>
<path opacity="0.21" d="M204.695 53.7676C205.194 54.1691 205.688 54.5759 206.177 54.988" stroke="#2196F3" stroke-width="4" stroke-miterlimit="10"/>
</g>
<g opacity="0.5">
<path opacity="0.5" d="M148.526 71.1744C149.167 71.0804 149.807 70.9992 150.447 70.9309" stroke="#2196F3" stroke-width="4" stroke-miterlimit="10"/>
<path opacity="0.5" d="M154.121 70.6779C154.495 70.6779 154.868 70.6779 155.242 70.6779C163.052 70.6778 170.727 72.7207 177.505 76.6039C184.283 80.4871 189.93 86.0759 193.884 92.8161C197.839 99.5563 199.965 107.214 200.051 115.03C200.137 122.846 198.181 130.548 194.375 137.374" stroke="#2196F3" stroke-width="4" stroke-miterlimit="10" stroke-dasharray="11.56 11.56"/>
<path opacity="0.5" d="M193.441 138.969C193.106 139.516 192.759 140.05 192.401 140.571" stroke="#2196F3" stroke-width="4" stroke-miterlimit="10"/>
</g>
<path d="M265.937 174.577L233.679 157.533L250.506 129.955C250.638 129.738 250.849 129.58 251.094 129.513C251.339 129.446 251.6 129.474 251.825 129.593L278.757 143.826C278.978 143.944 279.147 144.142 279.229 144.379C279.312 144.617 279.302 144.876 279.201 145.107L265.937 174.577Z" fill="url(#paint0_linear)"/>
<path d="M265.402 173.094L235.206 157.138L250.928 131.371C251.061 131.154 251.271 130.996 251.516 130.929C251.761 130.861 252.022 130.89 252.247 131.009L277.354 144.277C277.576 144.396 277.745 144.593 277.827 144.831C277.91 145.068 277.9 145.328 277.799 145.558L265.402 173.094Z" fill="#F2F2F2"/>
<path d="M244.639 214.942L212.377 197.901L199.113 227.371C199.012 227.601 199.002 227.861 199.085 228.099C199.167 228.336 199.336 228.534 199.558 228.652L226.496 242.872C226.721 242.991 226.982 243.019 227.227 242.952C227.472 242.885 227.682 242.727 227.815 242.51L244.639 214.942Z" fill="url(#paint1_linear)"/>
<path d="M243.105 215.323L212.908 199.368L200.534 226.903C200.433 227.134 200.423 227.394 200.506 227.631C200.588 227.869 200.757 228.066 200.979 228.185L226.086 241.45C226.311 241.568 226.572 241.597 226.817 241.53C227.062 241.463 227.273 241.304 227.405 241.088L243.105 215.323Z" fill="#F2F2F2"/>
<path d="M228.202 152.079L204.804 196.435C204.612 196.799 204.751 197.251 205.115 197.443L249.437 220.859C249.802 221.052 250.253 220.912 250.445 220.548L273.843 176.192C274.035 175.827 273.896 175.376 273.532 175.183L229.21 151.767C228.845 151.575 228.394 151.714 228.202 152.079Z" fill="url(#paint2_linear)"/>
<path d="M272.507 175.514L229.558 152.824C229.194 152.631 228.743 152.771 228.55 153.135L205.877 196.117C205.685 196.482 205.824 196.933 206.188 197.126L249.138 219.817C249.502 220.009 249.953 219.869 250.145 219.505L272.819 176.523C273.011 176.158 272.872 175.707 272.507 175.514Z" fill="#F2F2F2"/>
<path d="M269.589 184.952L267.693 183.95C267.458 183.826 267.168 183.916 267.044 184.151L263.869 190.17C263.745 190.405 263.835 190.696 264.069 190.819L265.966 191.821C266.2 191.945 266.491 191.855 266.614 191.621L269.79 185.601C269.914 185.366 269.824 185.076 269.589 184.952Z" fill="#F2F2F2"/>
<path d="M269.363 176.487L230.532 155.972C230.168 155.779 229.717 155.919 229.525 156.283L209.026 195.144C208.833 195.508 208.973 195.96 209.337 196.152L248.168 216.667C248.532 216.86 248.983 216.72 249.175 216.356L269.674 177.495C269.867 177.131 269.727 176.679 269.363 176.487Z" fill="#F4D35E"/>
<path d="M253.13 186.381L251.152 181.945L237.526 187.98L234.937 182.259L230.344 184.299L234.153 192.554L235.065 194.665L253.13 186.381Z" fill="url(#paint3_linear)"/>
<path d="M252.916 186.186L251.095 182.217L237.398 188.518L234.716 182.682L230.75 184.504L234.348 192.32L235.282 194.297L252.916 186.186Z" fill="white"/>
<path d="M99.2995 0.317599L11.4876 37.5296C9.49351 38.3746 8.56148 40.6775 9.40588 42.6731L78.9827 207.11C79.8271 209.106 82.1281 210.039 84.1223 209.194L171.934 171.982C173.928 171.136 174.86 168.834 174.016 166.838L104.439 2.40095C103.595 0.405298 101.294 -0.52745 99.2995 0.317599Z" fill="url(#paint4_linear)"/>
<path d="M98.5839 3.35861L14.1617 39.1342C11.9413 40.0751 10.9036 42.6393 11.8438 44.8614L79.1115 203.841C80.0518 206.063 82.6139 207.102 84.8343 206.161L169.257 170.386C171.477 169.445 172.515 166.88 171.574 164.658L104.307 5.67835C103.367 3.45625 100.804 2.41767 98.5839 3.35861Z" fill="white"/>
<path d="M81.3723 15.5809C81.854 17.4653 81.6461 19.4601 80.786 21.2045C79.9259 22.9488 78.4705 24.3276 76.683 25.0915L44.748 38.6287C42.9558 39.3821 40.9534 39.4688 39.1029 38.873C37.2524 38.2772 35.676 37.0384 34.6589 35.3805L17.7424 42.5495C17.2809 42.7447 16.8623 43.0289 16.5106 43.3861C16.159 43.7433 15.8811 44.1663 15.6929 44.631C15.5047 45.0957 15.4099 45.593 15.4139 46.0944C15.4179 46.5958 15.5207 47.0915 15.7162 47.5531L79.8807 199.169C80.0757 199.631 80.3597 200.05 80.7166 200.402C81.0735 200.754 81.4962 201.032 81.9605 201.22C82.4249 201.408 82.9218 201.503 83.4228 201.499C83.9238 201.495 84.4191 201.392 84.8804 201.197L165.68 166.953C166.141 166.758 166.56 166.474 166.911 166.117C167.263 165.76 167.541 165.337 167.729 164.872C167.917 164.407 168.012 163.91 168.008 163.408C168.004 162.907 167.901 162.411 167.706 161.95L103.548 10.3274C103.353 9.86554 103.069 9.44665 102.712 9.09472C102.355 8.74278 101.932 8.4647 101.468 8.27638C101.004 8.08805 100.507 7.99319 100.006 7.99719C99.5047 8.0012 99.0094 8.104 98.5481 8.29973L81.3723 15.5809Z" fill="#F4D35E"/>
<path d="M68.8334 23.2592L49.4064 31.4918C49.0808 31.6297 48.9287 32.0057 49.0665 32.3315L49.1127 32.4407C49.2506 32.7665 49.6262 32.9188 49.9518 32.7808L69.3788 24.5483C69.7043 24.4103 69.8565 24.0343 69.7187 23.7085L69.6725 23.5994C69.5346 23.2735 69.1589 23.1213 68.8334 23.2592Z" fill="#DBDBDB"/>
<path d="M74.3439 22.444C74.7704 22.2633 74.9697 21.7707 74.7891 21.3439C74.6085 20.9171 74.1163 20.7176 73.6898 20.8983C73.2633 21.0791 73.064 21.5716 73.2446 21.9984C73.4252 22.4252 73.9174 22.6247 74.3439 22.444Z" fill="#DBDBDB"/>
<path d="M105.392 85.2497L96.8645 83.5199L91.4902 109.701L80.4505 107.532L78.6548 116.363L94.6559 119.387L98.6794 120.249L105.392 85.2497Z" fill="url(#paint5_linear)"/>
<path d="M104.886 85.3554L97.2037 83.8915L92.1431 110.45L80.8409 108.294L79.3749 115.982L94.5117 118.859L98.372 119.551L104.886 85.3554Z" fill="white"/>
<path opacity="0.3" d="M293.519 12.3648C295.994 12.3648 298 10.3569 298 7.88014C298 5.40335 295.994 3.39551 293.519 3.39551C291.044 3.39551 289.038 5.40335 289.038 7.88014C289.038 10.3569 291.044 12.3648 293.519 12.3648Z" fill="#80DEEA"/>
<path opacity="0.3" d="M247.266 114.419C249.741 114.419 251.748 112.411 251.748 109.934C251.748 107.458 249.741 105.45 247.266 105.45C244.791 105.45 242.785 107.458 242.785 109.934C242.785 112.411 244.791 114.419 247.266 114.419Z" fill="#80DEEA"/>
<path opacity="0.5" d="M4.4812 30.6237C6.9561 30.6237 8.96241 28.6159 8.96241 26.1391C8.96241 23.6623 6.9561 21.6544 4.4812 21.6544C2.0063 21.6544 0 23.6623 0 26.1391C0 28.6159 2.0063 30.6237 4.4812 30.6237Z" fill="#80DEEA"/>
<path opacity="0.3" d="M8.96241 16.8494C11.4373 16.8494 13.4436 14.8416 13.4436 12.3648C13.4436 9.88797 11.4373 7.88013 8.96241 7.88013C6.4875 7.88013 4.4812 9.88797 4.4812 12.3648C4.4812 14.8416 6.4875 16.8494 8.96241 16.8494Z" fill="#80DEEA"/>
<g opacity="0.2">
<path opacity="0.2" d="M50.5096 40.8711L82.4478 27.3371C84.2353 26.5732 85.6907 25.1944 86.5508 23.4501C87.4109 21.7057 87.6188 19.7109 87.1371 17.8265L103.461 10.9041L103.218 10.3307C103.023 9.86884 102.739 9.44995 102.382 9.09801C102.025 8.74608 101.603 8.468 101.138 8.27968C100.674 8.09135 100.177 7.99648 99.676 8.00049C99.175 8.00449 98.6797 8.1073 98.2184 8.30302L81.0458 15.5809C81.5276 17.4654 81.3196 19.4602 80.4596 21.2046C79.5995 22.9489 78.1441 24.3277 76.3566 25.0916L44.428 38.6288C43.5733 38.99 42.6625 39.2003 41.7361 39.2502C42.8818 40.3462 44.3225 41.0834 45.8811 41.3714C47.4397 41.6593 49.0484 41.4855 50.5096 40.8711Z" fill="white"/>
<path opacity="0.2" d="M21.481 49.7923C21.2854 49.3307 21.1827 48.835 21.1787 48.3336C21.1747 47.8322 21.2695 47.3349 21.4577 46.8702C21.6459 46.4055 21.9237 45.9825 22.2754 45.6253C22.6271 45.2682 23.0456 44.9839 23.5072 44.7888L38.0871 38.6096C36.5316 37.9495 35.2211 36.8195 34.3389 35.3774L17.4223 42.5465C16.9608 42.7416 16.5422 43.0259 16.1906 43.383C15.8389 43.7402 15.561 44.1632 15.3728 44.6279C15.1847 45.0926 15.0899 45.5899 15.0939 46.0913C15.0979 46.5927 15.2006 47.0884 15.3962 47.55L79.5606 199.169C79.7556 199.631 80.0396 200.05 80.3965 200.402C80.7534 200.754 81.1761 201.032 81.6405 201.22C82.1048 201.408 82.6017 201.503 83.1027 201.499C83.6037 201.495 84.099 201.393 84.5603 201.197L85.4022 200.841L21.481 49.7923Z" fill="white"/>
</g>
</g>
<defs>
<linearGradient id="paint0_linear" x1="256.499" y1="174.564" x2="256.498" y2="129.466" gradientUnits="userSpaceOnUse">
<stop stop-color="#808080" stop-opacity="0.25"/>
<stop offset="0.54" stop-color="#808080" stop-opacity="0.12"/>
<stop offset="1" stop-color="#808080" stop-opacity="0.1"/>
</linearGradient>
<linearGradient id="paint1_linear" x1="50263.3" y1="35853.8" x2="47319.1" y2="30212.4" gradientUnits="userSpaceOnUse">
<stop stop-color="#808080" stop-opacity="0.25"/>
<stop offset="0.54" stop-color="#808080" stop-opacity="0.12"/>
<stop offset="1" stop-color="#808080" stop-opacity="0.1"/>
</linearGradient>
<linearGradient id="paint2_linear" x1="34034.7" y1="59177.3" x2="34033.8" y2="48009.1" gradientUnits="userSpaceOnUse">
<stop stop-color="#808080" stop-opacity="0.25"/>
<stop offset="0.54" stop-color="#808080" stop-opacity="0.12"/>
<stop offset="1" stop-color="#808080" stop-opacity="0.1"/>
</linearGradient>
<linearGradient id="paint3_linear" x1="236.415" y1="195.378" x2="245.226" y2="178.792" gradientUnits="userSpaceOnUse">
<stop stop-opacity="0.12"/>
<stop offset="0.55" stop-opacity="0.09"/>
<stop offset="1" stop-opacity="0.02"/>
</linearGradient>
<linearGradient id="paint4_linear" x1="80414.1" y1="110424" x2="106670" y2="8567.52" gradientUnits="userSpaceOnUse">
<stop stop-color="#808080" stop-opacity="0.25"/>
<stop offset="0.54" stop-color="#808080" stop-opacity="0.12"/>
<stop offset="1" stop-color="#808080" stop-opacity="0.1"/>
</linearGradient>
<linearGradient id="paint5_linear" x1="22713.4" y1="13117.2" x2="20986.6" y2="9665.44" gradientUnits="userSpaceOnUse">
<stop stop-opacity="0.12"/>
<stop offset="0.55" stop-opacity="0.09"/>
<stop offset="1" stop-opacity="0.02"/>
</linearGradient>
<clipPath id="clip0">
<rect width="298" height="243" fill="white"/>
</clipPath>
</defs>
</svg>
