<svg width="232" height="62" viewBox="0 0 232 62" fill="none" xmlns="http://www.w3.org/2000/svg">
<path d="M59.2842 60H55.7393L50.0459 52.1045C48.6494 53.3577 47.1634 54.5394 45.5879 55.6494C44.0482 56.7236 42.4189 57.6725 40.7002 58.4961C38.9814 59.2839 37.209 59.9105 35.3828 60.376C33.5924 60.8415 31.7663 61.0742 29.9043 61.0742C25.8581 61.0742 22.0446 60.3939 18.4639 59.0332C14.9189 57.6725 11.8037 55.7031 9.11816 53.125C6.46842 50.5111 4.3737 47.3242 2.83398 43.5645C1.29427 39.8047 0.524414 35.5257 0.524414 30.7275C0.524414 26.2516 1.29427 22.1517 2.83398 18.4277C4.3737 14.668 6.46842 11.4453 9.11816 8.75977C11.8037 6.07422 14.9189 3.9974 18.4639 2.5293C22.0446 1.02539 25.8581 0.273438 29.9043 0.273438C31.7663 0.273438 33.6104 0.506185 35.4365 0.97168C37.2627 1.43717 39.0352 2.08171 40.7539 2.90527C42.4727 3.72884 44.1019 4.69564 45.6416 5.80566C47.2171 6.91569 48.6852 8.11523 50.0459 9.4043L55.7393 2.58301H59.2842V60ZM44.5137 30.7275C44.5137 28.7223 44.1198 26.7887 43.332 24.9268C42.5801 23.029 41.5417 21.3639 40.2168 19.9316C38.8919 18.4635 37.3343 17.2998 35.5439 16.4404C33.7894 15.5452 31.9095 15.0977 29.9043 15.0977C27.8991 15.0977 26.0013 15.4378 24.2109 16.1182C22.4564 16.7985 20.9167 17.8011 19.5918 19.126C18.3027 20.4508 17.2822 22.098 16.5303 24.0674C15.7783 26.001 15.4023 28.221 15.4023 30.7275C15.4023 33.234 15.7783 35.472 16.5303 37.4414C17.2822 39.375 18.3027 41.0042 19.5918 42.3291C20.9167 43.654 22.4564 44.6566 24.2109 45.3369C26.0013 46.0173 27.8991 46.3574 29.9043 46.3574C31.9095 46.3574 33.7894 45.9277 35.5439 45.0684C37.3343 44.1732 38.8919 43.0094 40.2168 41.5771C41.5417 40.109 42.5801 38.444 43.332 36.582C44.1198 34.6842 44.5137 32.7327 44.5137 30.7275ZM86.2729 60H71.6098V2.47559H75.1547L79.9887 9.29688C82.352 7.14844 85.0375 5.5013 88.0453 4.35547C91.0531 3.17383 94.1684 2.58301 97.391 2.58301H110.335V17.1924H97.391C95.8513 17.1924 94.4011 17.4788 93.0404 18.0518C91.6798 18.6247 90.4981 19.4124 89.4955 20.415C88.4929 21.4176 87.7051 22.5993 87.1322 23.96C86.5593 25.3206 86.2729 26.7708 86.2729 28.3105V60ZM140.063 45.9277C140.636 46.1068 141.209 46.2321 141.782 46.3037C142.355 46.3395 142.928 46.3574 143.501 46.3574C144.933 46.3574 146.312 46.1605 147.637 45.7666C148.961 45.3727 150.197 44.8177 151.343 44.1016C152.524 43.3496 153.563 42.4544 154.458 41.416C155.389 40.3418 156.141 39.1602 156.714 37.8711L167.456 48.667C166.095 50.6006 164.52 52.3372 162.729 53.877C160.975 55.4167 159.059 56.7236 156.982 57.7979C154.941 58.8721 152.775 59.6777 150.483 60.2148C148.227 60.7878 145.9 61.0742 143.501 61.0742C139.455 61.0742 135.641 60.3223 132.06 58.8184C128.515 57.3145 125.4 55.2197 122.715 52.5342C120.065 49.8486 117.97 46.6618 116.43 42.9736C114.891 39.2497 114.121 35.1676 114.121 30.7275C114.121 26.18 114.891 22.0264 116.43 18.2666C117.97 14.5068 120.065 11.3021 122.715 8.65234C125.4 6.0026 128.515 3.94368 132.06 2.47559C135.641 1.00749 139.455 0.273438 143.501 0.273438C145.9 0.273438 148.245 0.559896 150.537 1.13281C152.829 1.70573 154.995 2.5293 157.036 3.60352C159.113 4.67773 161.046 6.0026 162.837 7.57812C164.627 9.11784 166.203 10.8545 167.563 12.7881L140.063 45.9277ZM147.583 15.6885C146.902 15.4378 146.222 15.2767 145.542 15.2051C144.897 15.1335 144.217 15.0977 143.501 15.0977C141.496 15.0977 139.598 15.4736 137.807 16.2256C136.053 16.9417 134.513 17.9801 133.188 19.3408C131.899 20.7015 130.879 22.3486 130.127 24.2822C129.375 26.18 128.999 28.3285 128.999 30.7275C128.999 31.2646 129.017 31.8734 129.053 32.5537C129.124 33.234 129.214 33.9323 129.321 34.6484C129.464 35.3288 129.625 35.9912 129.804 36.6357C129.984 37.2803 130.216 37.8532 130.503 38.3545L147.583 15.6885ZM231.344 60H227.799L222.106 52.1045C220.709 53.3577 219.223 54.5394 217.648 55.6494C216.108 56.7236 214.479 57.6725 212.76 58.4961C211.041 59.2839 209.269 59.9105 207.443 60.376C205.652 60.8415 203.826 61.0742 201.964 61.0742C197.918 61.0742 194.104 60.3939 190.524 59.0332C186.979 57.6725 183.863 55.7031 181.178 53.125C178.528 50.5111 176.433 47.3242 174.894 43.5645C173.354 39.8047 172.584 35.5257 172.584 30.7275C172.584 26.2516 173.354 22.1517 174.894 18.4277C176.433 14.668 178.528 11.4453 181.178 8.75977C183.863 6.07422 186.979 3.9974 190.524 2.5293C194.104 1.02539 197.918 0.273438 201.964 0.273438C203.826 0.273438 205.67 0.506185 207.496 0.97168C209.322 1.43717 211.095 2.08171 212.814 2.90527C214.532 3.72884 216.162 4.69564 217.701 5.80566C219.277 6.91569 220.745 8.11523 222.106 9.4043L227.799 2.58301H231.344V60ZM216.573 30.7275C216.573 28.7223 216.18 26.7887 215.392 24.9268C214.64 23.029 213.601 21.3639 212.277 19.9316C210.952 18.4635 209.394 17.2998 207.604 16.4404C205.849 15.5452 203.969 15.0977 201.964 15.0977C199.959 15.0977 198.061 15.4378 196.271 16.1182C194.516 16.7985 192.976 17.8011 191.652 19.126C190.363 20.4508 189.342 22.098 188.59 24.0674C187.838 26.001 187.462 28.221 187.462 30.7275C187.462 33.234 187.838 35.472 188.59 37.4414C189.342 39.375 190.363 41.0042 191.652 42.3291C192.976 43.654 194.516 44.6566 196.271 45.3369C198.061 46.0173 199.959 46.3574 201.964 46.3574C203.969 46.3574 205.849 45.9277 207.604 45.0684C209.394 44.1732 210.952 43.0094 212.277 41.5771C213.601 40.109 214.64 38.444 215.392 36.582C216.18 34.6842 216.573 32.7327 216.573 30.7275Z" fill="#EBEBD3"/>
</svg>
